<?xml version="1.0" encoding="UTF-8"?><svg id="Graphics" xmlns="http://www.w3.org/2000/svg" xmlns:xlink="http://www.w3.org/1999/xlink" viewBox="0 0 2400 2400"><defs><style>.cls-1{fill:none;}.cls-2{clip-path:url(#clippath);}.cls-3{fill:#fff;}</style><clipPath id="clippath"><rect class="cls-1" width="2400" height="2400"/></clipPath></defs><g class="cls-2"><path class="cls-3" d="M1883.7,1881.82c-85.56,0-171.13-.62-256.68,.44-20.47,.25-25.56-7.72-23.59-25.76,1.67-15.35-6.86-35.61,22.66-33.71,18.12,1.16,37.23-.23,54.6-5.11,9.53-2.67,17.44-14.19,23.94-23.24,2.97-4.13,.86-11.98,.86-18.15,.02-235.1,.02-470.21,.02-705.31v-24.32l-8.93-1.37c-16.16,42.47-32.33,84.94-48.48,127.41-57.27,150.62-114.57,301.24-171.8,451.89-28.75,75.67-72.66,185.78-101.07,261.58-2.82,2.87-35.53,1.01-60.73,1.01,0,0-7.42-19.56-10.52-27.81-27.12-72.22-47.62-146.31-74.52-218.62-67.09-180.36-134.27-360.69-201.37-541.05-4.96-13.31-9.6-26.74-14.39-40.11-1.97,.07-3.93,.15-5.9,.23-.82,5.9-2.34,11.81-2.34,17.72-.12,232.02,1.89,463.6,2.05,695.62,.02,26.79,17.89,38.52,55.74,41.86,15.13,1.34,35.17,2.92,51.2,2.2-.48,18.66,1.09,75.87-.29,75.87h-50.42c-70.92,.03-186.49,.04-257.4,0,0,0,.29-11.66,.48-42.19,.05-8.29-.05-23.9,.38-33.25,23.78,.37,55.22-3.59,76.89-7.42,26.94-4.76,44.38-15.08,44.38-43.11,.03-233.56,.02-467.13,.02-700.69,0-41-1.59-43.61-40.78-51.27-13.42-2.62-27.44-2.53-41.21-2.86-19.87-.47-30.21-6.81-29.75-29.98,.41-21.11,4.35-29.57,27.85-29.13,80.14,1.47,160.33,.57,240.49,.57h19.29c46.34,147.91,105.28,287.81,157.36,430.17,31.23,85.34,63.23,170.4,94.99,255.55,3.91,10.49,7.99,19.91,14.02,32.18,50.63-116.81,97.91-235.66,141.74-354.43,44-119.23,98.73-234.72,130.84-362.24,2.6-.18,10.04-1.15,17.47-1.17,81.71-.11,163.42,.19,245.13-.29,16.03-.09,26.82,1.6,25.06,21.99-1.5,17.43,3.75,36.91-24.38,36.94-15.97,.01-31.93,3.75-47.93,4.08-22.29,.46-28.77,13.92-29.88,32.82-.32,5.38-.08,10.79-.08,16.19,0,235.1,0,470.21,0,705.32,0,40.55,6.21,46.51,45.72,48.15,17.48,.73,34.85,3.94,51.83,5.97,1.29,1.77,2.81,2.9,2.98,4.22q6.82,52.59-45.49,52.6m-996.85-332.92v-73.12c-17.95,1.37-36.5,2.11-55.76,2.11h-123.84V571.13h123.84c143.72,0,250.66,37.37,320.77,112.01,70.02,74.71,105.06,188.26,105.06,340.6,0,66.39-6.71,125.44-20.1,177.16,3.41,8.89,6.82,17.79,10.22,26.63,17.84,46.46,36.29,94.51,53.72,142.13,.46,1.26,.93,2.53,1.38,3.78,25.47-31.06,46.77-65.14,63.75-102.38,32.84-72.05,49.33-154.53,49.33-247.32,0-166.69-50.49-295.66-151.41-387.25-100.92-91.44-243.12-137.21-426.6-137.21H451.07v62.68l88.68,9.17,26.79,22.19v862.45l-26.79,22.13-88.68,7.64v64.2h386.14c17.23,0,33.63-.34,49.64-.84m161.2-99.43c.12,26.95,.24,54.13,.35,81.46,5.37-1.21,10.78-2.41,15.87-3.75,24.24-6.3,47.36-14.46,69.52-24.25-11.71-31.47-23.68-63.63-34.85-93.63-15.78,10.69-32.77,20.13-50.94,28.31,.02,3.93,.03,7.93,.05,11.86"/></g></svg>