<?xml version="1.0" encoding="UTF-8" standalone="no"?><!DOCTYPE svg PUBLIC "-//W3C//DTD SVG 1.1//EN" "http://www.w3.org/Graphics/SVG/1.1/DTD/svg11.dtd"><svg width="100%" height="100%" viewBox="0 0 1250 209" version="1.1" xmlns="http://www.w3.org/2000/svg" xmlns:xlink="http://www.w3.org/1999/xlink" xml:space="preserve" xmlns:serif="http://www.serif.com/" style="fill-rule:evenodd;clip-rule:evenodd;stroke-linejoin:round;stroke-miterlimit:2;"><path d="M476.748,173.471l0.3,-0.3c5.025,-5.759 8.548,-16.218 8.548,-16.218l-4.244,-5.71l-0.757,1.599l-0.193,0.396l3.078,4.424c-0,0 -3.847,9.522 -8.68,14.499c-0.337,0.349 -0.697,0.697 -1.07,1.106l-0.216,0.228l3.234,-0.024Z" style="fill-rule:nonzero;"/><path d="M504.026,158.492c-0,-0 -0.998,7.454 -3.631,14.763l-0.024,0l-0,0.024l2.597,-0.024l3.149,-13.777l2.549,-4.761l-1.635,-1.671l-3.005,5.446Z" style="fill-rule:nonzero;"/><path d="M496.127,85.302l9.822,0.3l-0.481,2.02l-9.341,-2.32Z" style="fill-rule:nonzero;"/><path d="M522.227,69.878l-4.424,-0.457c-0.842,0.613 -1.683,1.202 -2.513,1.767l7.442,0.637c-0,0 12.671,-8.896 17.396,-17.023c4.376,-7.526 6.792,-14.775 8.127,-20.762l-2.188,0c-1.347,5.927 -3.703,12.828 -7.827,19.584c-5.638,9.233 -16.001,16.266 -16.001,16.266" style="fill-rule:nonzero;"/><path d="M518.224,92.203l-9.967,-0.313l6.901,3.763l3.066,-3.45Z" style="fill-rule:nonzero;"/><path d="M506.923,101.724l6.347,3.222l5.158,-0.553l-4.773,-2.284l-6.732,-0.385Z" style="fill-rule:nonzero;"/><path d="M500.251,119.913l3.378,1.936l0.096,-3.006l-5.374,-4.328l1.9,5.398Z" style="fill-rule:nonzero;"/><path d="M508.245,112.772l2.357,0.06l-1.311,-1.983l-5.806,-1.599l4.76,3.522Z" style="fill-rule:nonzero;"/><path d="M491.39,121.765l-1.49,-3.427l-0.77,3.884l1.503,2.885l0.757,-3.342Z" style="fill-rule:nonzero;"/><path d="M442.858,94.355l0.949,0.12c0.06,-0 0.121,0.012 0.181,0.012c0.793,0.024 1.647,-0.445 1.791,-1.455c0.06,-0.385 0.192,-1.298 -2.609,-3.066l-1.142,1.804c0.301,0.192 0.613,0.409 0.89,0.613l-0.06,1.972Z" style="fill-rule:nonzero;"/><path d="M442.136,95.917c-1.346,-1.947 -1.791,-4.977 -1.791,-4.977c-0,0 -11.89,2.152 -13.922,2.681c-2.031,0.529 -4.207,7.995 -4.207,7.995c-0,-0 2.705,-0.529 7.61,-1.166c5.878,-0.758 16.265,-2.092 16.265,-2.092c0,-0 -3.005,-1.046 -3.955,-2.429" style="fill-rule:nonzero;"/><path d="M535.487,106.256l-15.761,-6.732l8.644,-11.361l-16.097,-2.128l1.779,-6.035l-19.151,-0.601l3.39,-5.133l-2.825,0.168c-0.397,0.024 -39.865,2.32 -44.47,2.657c-4.64,0.324 -9.425,7.526 -10.904,9.966c-3.438,0.541 -13.981,2.296 -16.578,3.655c-3.102,1.623 -5.446,10.784 -6.083,13.549l-0.469,2.031l8.115,-1.202l0.361,-0.048l3.57,-0.529l-3.57,0.529l14.21,-2.44l5.313,-0.914l0.277,-0.048l1.647,-2.753l-26.16,3.979c1.371,-5.073 3.09,-9.089 4.124,-9.642c1.863,-0.973 11.024,-2.644 16.35,-3.462l0.673,-0.108l0.336,-0.589c1.984,-3.438 6.18,-8.957 8.993,-9.149c3.907,-0.276 33.89,-2.032 41.608,-2.476l-3.066,4.64l20.57,0.649l-1.671,5.687l14.535,1.911l-7.887,10.363l9.93,4.244l-16.253,2.464l6.395,8.187l-9.245,-0.493l-0.36,11.53l-12.275,-8.272l-2.609,11.109l-2.897,-6.997l-0.433,-0.24c-0.276,-0.157 -27.326,-15.292 -30.403,-16.699c-0.108,-0.048 -0.241,-0.096 -0.361,-0.156c-2.561,-1.022 -8.223,-1.96 -16.879,-2.813l-10.88,1.935c0.866,0.048 20.834,1.154 26.629,3.474c0.12,0.049 0.228,0.097 0.325,0.145c2.729,1.238 26.532,14.546 29.754,16.35l5.903,14.21l3.679,-15.665l13.128,8.848l0.432,-13.765l12.563,0.673l-7.249,-9.269l21.315,-3.222l-0.012,-0.012Z" style="fill-rule:nonzero;"/><path d="M450.984,85.879c0.012,0.313 0.049,0.685 0.121,1.094c0.012,0.084 0.036,0.156 0.048,0.24c0.024,0.085 0.036,0.169 0.06,0.241l-0,0.024c0.024,0.072 0.036,0.144 0.06,0.204c-0,0.024 0.012,0.048 0.024,0.06c0.024,0.061 0.036,0.121 0.06,0.181c0,0.024 0.012,0.036 0.024,0.06c0.024,0.072 0.06,0.156 0.096,0.228c0,0.012 0.012,0.036 0.024,0.048c0.024,0.06 0.06,0.121 0.085,0.181c0.012,0.024 0.024,0.048 0.036,0.072c0.024,0.048 0.06,0.108 0.084,0.156c0.012,0.024 0.024,0.048 0.036,0.072c0.048,0.072 0.084,0.144 0.132,0.217c0,-0 0.012,0.024 0.024,0.024c0.048,0.06 0.084,0.132 0.132,0.192c0.012,0.024 0.036,0.048 0.048,0.072c0.036,0.048 0.085,0.108 0.121,0.156c0.012,0.024 0.036,0.037 0.048,0.061c0.06,0.072 0.12,0.132 0.192,0.204c0.517,0.517 1.142,0.866 1.876,1.082c0.444,0.12 0.913,0.192 1.43,0.216c0.433,0 0.89,0 1.371,-0.072l0.048,0c0.108,-0.012 0.216,-0.036 0.312,-0.048c0.048,0 0.084,-0.024 0.121,-0.024c0.072,-0.012 0.156,-0.036 0.228,-0.048c0.048,-0 0.084,-0.024 0.132,-0.036c0.072,-0.024 0.144,-0.036 0.205,-0.06c0.048,-0.012 0.084,-0.024 0.12,-0.036c0.072,-0.024 0.132,-0.048 0.204,-0.072c0.036,-0.012 0.084,-0.036 0.12,-0.049c0.06,-0.024 0.133,-0.048 0.193,-0.072c0.036,-0.012 0.072,-0.036 0.108,-0.048c0.06,-0.024 0.12,-0.06 0.192,-0.084c0.036,-0.012 0.072,-0.036 0.108,-0.06c0.061,-0.036 0.121,-0.06 0.181,-0.096c0.036,-0.024 0.072,-0.036 0.096,-0.06c0.06,-0.036 0.12,-0.072 0.168,-0.108c0.036,-0.025 0.06,-0.037 0.096,-0.061c0.061,-0.036 0.109,-0.072 0.169,-0.108c0.036,-0.024 0.06,-0.048 0.096,-0.072c0.048,-0.036 0.108,-0.072 0.156,-0.12c0.036,-0.024 0.06,-0.048 0.084,-0.072c0.048,-0.036 0.097,-0.084 0.145,-0.12c0.024,-0.025 0.06,-0.049 0.084,-0.073c0.048,-0.036 0.096,-0.084 0.144,-0.12c0.024,-0.024 0.06,-0.06 0.084,-0.084c0.048,-0.036 0.084,-0.084 0.132,-0.12l0.205,-0.205c0.024,-0.036 0.06,-0.06 0.084,-0.096c0.036,-0.036 0.072,-0.084 0.108,-0.12c0.036,-0.036 0.06,-0.072 0.084,-0.108c0.036,-0.036 0.06,-0.072 0.085,-0.108c0.036,-0.036 0.06,-0.085 0.096,-0.121c0.024,-0.036 0.048,-0.072 0.072,-0.108c0.036,-0.048 0.06,-0.084 0.096,-0.132c0.024,-0.036 0.036,-0.06 0.06,-0.096c0.036,-0.048 0.072,-0.096 0.096,-0.157c0.012,-0.024 0.036,-0.048 0.048,-0.072c0.036,-0.06 0.073,-0.12 0.109,-0.168c-0,-0.012 0.024,-0.036 0.024,-0.048c0.036,-0.06 0.072,-0.132 0.108,-0.192c-0,-0 -0,-0.012 0.012,-0.024c0.457,-0.854 0.733,-1.708 0.853,-2.369c2.14,-0.144 4.292,-0.276 6.156,-0.372c0.408,-0.024 0.793,-0.049 1.166,-0.061l0.036,0c0.18,0 0.349,-0.012 0.529,-0.024l0.06,0c0.168,0 0.337,-0.012 0.505,-0.024c0.156,0 0.312,-0.012 0.457,-0.024l0.072,0c0.144,0 0.276,0 0.409,-0.012l0.072,0c0.132,0 0.276,0 0.396,-0.012l-0.036,-0.625l-0.048,-0.902c-0.805,0.025 -19.752,0.578 -22.048,0.926c-2.525,0.385 -3.138,2.26 -3.102,3.21l2.128,-0.072c0,-0 0,-0.769 1.154,-1.01m5.891,2.909c-0.613,0.085 -1.154,0.085 -1.611,0c-0.529,-0.096 -0.962,-0.3 -1.286,-0.613c-0.601,-0.577 -0.794,-1.454 -0.842,-2.104l0.938,-0.048c-0,0.036 0.012,0.072 0.024,0.121c-0,0.012 -0,0.036 0.012,0.048c0.012,0.048 0.024,0.096 0.048,0.156c0,0.036 0.024,0.072 0.036,0.108c0,0.024 0.024,0.048 0.024,0.072c0.012,0.048 0.036,0.084 0.06,0.132c0,0.025 0.024,0.037 0.024,0.061c0.036,0.06 0.06,0.12 0.109,0.18c-0,0.012 0.012,0.024 0.024,0.036c0.036,0.048 0.072,0.108 0.108,0.156c-0,0.012 0.024,0.036 0.036,0.048c0.096,0.121 0.216,0.241 0.348,0.337c0.012,-0 0.037,0.024 0.049,0.036c0.06,0.036 0.12,0.084 0.192,0.12c0.012,0 0.024,0.012 0.048,0.024c0.084,0.036 0.168,0.084 0.252,0.109c0.012,-0 0.037,-0 0.061,0.012c0.072,0.024 0.156,0.048 0.24,0.06c0.024,-0 0.06,-0 0.084,0.012c0.108,0.024 0.217,0.036 0.337,0.036l0.324,-0c0.073,-0 0.157,-0.012 0.229,-0.024l0.024,-0c0.084,-0.012 0.156,-0.036 0.24,-0.06c0.024,-0 0.048,-0.012 0.072,-0.024c0.073,-0.025 0.133,-0.049 0.205,-0.073c-0,0 0.024,0 0.036,-0.012c0.072,-0.024 0.144,-0.06 0.216,-0.096c0.024,0 0.048,-0.024 0.06,-0.036c0.06,-0.036 0.121,-0.06 0.169,-0.096c0.012,-0 0.024,-0.012 0.048,-0.024c0.072,-0.036 0.132,-0.084 0.192,-0.132c0.024,-0.012 0.036,-0.024 0.06,-0.036c0.048,-0.036 0.108,-0.073 0.157,-0.121c0.012,0 0.024,-0.024 0.048,-0.036c0.06,-0.048 0.12,-0.096 0.18,-0.144c0.012,-0.012 0.024,-0.024 0.048,-0.036c0.048,-0.048 0.096,-0.084 0.144,-0.132c0,-0 0.024,-0.024 0.036,-0.024l0.193,-0.193c0.048,-0.048 0.096,-0.108 0.144,-0.156l0.012,-0.012c0.216,-0.24 0.385,-0.469 0.517,-0.661l1.07,-0.048c-0,-0 -0,0.024 -0.012,0.024c-0.505,1.19 -1.551,2.777 -3.703,3.065" style="fill-rule:nonzero;"/><path d="M465.531,86.456c0,0 -0.06,0.866 -0.565,1.827c-0.168,0.325 -0.373,0.65 -0.649,0.962c-0.926,1.046 -3.066,1.695 -3.066,1.695c0,0 0.734,0.277 1.647,0.397c0.096,0.012 0.205,0.024 0.301,0.036c0.072,0 0.144,0 0.216,0.012c0.313,0.012 0.637,0 0.962,-0.036c0.132,-0.024 0.252,-0.048 0.373,-0.072c0.096,-0.024 0.204,-0.06 0.288,-0.096c0.048,-0.024 0.096,-0.036 0.144,-0.06c0.121,-0.048 0.229,-0.121 0.337,-0.193c0.132,-0.084 0.265,-0.192 0.373,-0.312c0.24,-0.265 0.396,-0.541 0.493,-0.83c0.072,-0.228 0.108,-0.469 0.108,-0.697c0.012,-1.347 -0.974,-2.633 -0.974,-2.633" style="fill-rule:nonzero;"/><path d="M102.887,61.991c14.39,0 25.547,3.595 33.457,10.76c7.911,7.189 11.878,17.3 11.878,30.368c-0,7.273 -1.298,13.741 -3.871,19.391c-2.585,5.662 -6.408,10.399 -11.481,14.246c-3.595,2.717 -7.658,4.665 -12.178,5.843c-4.521,1.19 -10.46,1.767 -17.805,1.767l-30.283,0l-0,-5.037l6.948,-0.601l2.104,-1.731l0,-67.636l-2.104,-1.743l-6.948,-0.722l-0,-4.917l30.283,0l-0,0.012Zm-10.195,5.627l0,71.122l9.714,-0c11.193,-0 19.56,-2.946 25.09,-8.848c5.53,-5.891 8.307,-14.812 8.307,-26.773c0,-11.962 -2.753,-20.859 -8.235,-26.713c-5.494,-5.855 -13.885,-8.788 -25.162,-8.788l-9.714,-0Z" style="fill:#fff;fill-rule:nonzero;"/><path d="M102.887,61.991c14.39,0 25.547,3.595 33.457,10.76c7.911,7.189 11.878,17.3 11.878,30.368c-0,7.273 -1.298,13.741 -3.871,19.391c-2.585,5.662 -6.408,10.399 -11.481,14.246c-3.595,2.717 -7.658,4.665 -12.178,5.843c-4.521,1.19 -10.46,1.767 -17.805,1.767l-30.283,0l-0,-5.037l6.948,-0.601l2.104,-1.731l0,-67.636l-2.104,-1.743l-6.948,-0.722l-0,-4.917l30.283,0l-0,0.012Zm-10.195,5.627l0,71.122l9.714,-0c11.193,-0 19.56,-2.946 25.09,-8.848c5.53,-5.891 8.307,-14.812 8.307,-26.773c0,-11.962 -2.753,-20.859 -8.235,-26.713c-5.494,-5.855 -13.885,-8.788 -25.162,-8.788l-9.714,-0Z" style="fill-rule:nonzero;"/><path d="M186.067,60.969l8.091,0l29.442,76.869l7.37,1.503l-0,5.037l-27.88,0l0,-5.037l7.61,-0.601l0.902,-1.731l-8.872,-23.455l-28.961,-0l-8.752,23.455l1.262,1.731l7.971,0.601l-0,5.037l-24.044,0l-0,-5.037l7.081,-1.503l28.78,-76.869Zm1.924,12.888l-12.118,34.058l24.765,0l-12.647,-34.058Z" style="fill:#fff;fill-rule:nonzero;"/><path d="M186.067,60.969l8.091,0l29.442,76.869l7.37,1.503l-0,5.037l-27.88,0l0,-5.037l7.61,-0.601l0.902,-1.731l-8.872,-23.455l-28.961,-0l-8.752,23.455l1.262,1.731l7.971,0.601l-0,5.037l-24.044,0l-0,-5.037l7.081,-1.503l28.78,-76.869Zm1.924,12.888l-12.118,34.058l24.765,0l-12.647,-34.058Z" style="fill-rule:nonzero;"/><path d="M239.144,144.378l0,-5.037l7.863,-0.601l2.092,-1.743l-0,-67.636l-2.092,-1.743l-7.863,-0.71l0,-4.917l31.186,0l-0,4.917l-7.863,0.71l-2.092,1.743l0,67.636l2.092,1.743l7.863,0.601l-0,5.037l-31.186,0Z" style="fill:#fff;fill-rule:nonzero;"/><path d="M239.144,144.378l0,-5.037l7.863,-0.601l2.092,-1.743l-0,-67.636l-2.092,-1.743l-7.863,-0.71l0,-4.917l31.186,0l-0,4.917l-7.863,0.71l-2.092,1.743l0,67.636l2.092,1.743l7.863,0.601l-0,5.037l-31.186,0Z" style="fill-rule:nonzero;"/><path d="M285.309,144.378l0,-5.037l7.73,-0.601l2.104,-1.743l0,-67.636l-2.104,-1.743l-7.73,-0.71l0,-4.917l29.983,0l-0,4.917l-7.021,0.71l-2.092,1.743l0,69.379l27.759,-0l1.743,-1.984l2.092,-14.751l6.36,0l-0,22.373l-58.824,0Z" style="fill:#fff;fill-rule:nonzero;"/><path d="M285.309,144.378l0,-5.037l7.73,-0.601l2.104,-1.743l0,-67.636l-2.104,-1.743l-7.73,-0.71l0,-4.917l29.983,0l-0,4.917l-7.021,0.71l-2.092,1.743l0,69.379l27.759,-0l1.743,-1.984l2.092,-14.751l6.36,0l-0,22.373l-58.824,0Z" style="fill-rule:nonzero;"/><path d="M337.148,61.991l28.54,0l0,4.917l-7.021,0.722l-1.25,1.37l18.827,33.77l20.629,-32.808l-1.142,-1.743l-7.501,-1.311l-0,-4.917l25.065,0l0,4.917l-7.489,1.551l-25.547,40.899l-0,27.639l1.972,1.743l8.343,0.601l-0,5.025l-31.786,0l-0,-5.025l8.343,-0.601l1.971,-1.743l0,-26.016l-24.464,-42.883l-7.49,-1.19l-0,-4.917Z" style="fill:#fff;fill-rule:nonzero;"/><path d="M337.148,61.991l28.54,0l0,4.917l-7.021,0.722l-1.25,1.37l18.827,33.77l20.629,-32.808l-1.142,-1.743l-7.501,-1.311l-0,-4.917l25.065,0l0,4.917l-7.489,1.551l-25.547,40.899l-0,27.639l1.972,1.743l8.343,0.601l-0,5.025l-31.786,0l-0,-5.025l8.343,-0.601l1.971,-1.743l0,-26.016l-24.464,-42.883l-7.49,-1.19l-0,-4.917Z" style="fill-rule:nonzero;"/><path d="M660.035,71.14c-1.406,3.703 -2.813,7.406 -4.231,11.108c-4.99,13.128 -9.991,26.256 -14.98,39.396c-2.513,6.601 -6.336,16.194 -8.812,22.806c-0.24,0.253 -3.102,0.084 -5.29,0.084c0,0 -0.649,-1.707 -0.913,-2.428c-2.369,-6.3 -4.148,-12.755 -6.492,-19.055c-5.855,-15.725 -11.71,-31.45 -17.552,-47.162c-0.433,-1.154 -0.842,-2.333 -1.251,-3.499c-0.168,0 -0.336,0.012 -0.517,0.024c-0.072,0.517 -0.204,1.034 -0.204,1.539c-0,20.233 0.168,40.418 0.18,60.639c0,2.332 1.563,3.354 4.857,3.655c1.323,0.12 3.066,0.252 4.46,0.192c-0.036,1.623 0.097,6.612 -0.024,6.612l-26.845,0c0,0 0.024,-1.022 0.036,-3.678c0,-0.722 0,-2.08 0.036,-2.898c2.08,0.036 4.821,-0.312 6.709,-0.649c2.344,-0.421 3.871,-1.31 3.871,-3.763l-0,-61.084c-0,-3.57 -0.145,-3.799 -3.559,-4.472c-1.166,-0.228 -2.392,-0.216 -3.594,-0.252c-1.732,-0.036 -2.633,-0.589 -2.597,-2.609c0.036,-1.839 0.384,-2.573 2.428,-2.537c6.985,0.133 13.982,0.048 20.967,0.048l1.683,0c4.039,12.9 9.173,25.09 13.717,37.497c2.717,7.442 5.518,14.859 8.283,22.277c0.349,0.914 0.697,1.731 1.226,2.801c4.412,-10.183 8.536,-20.546 12.359,-30.897c3.835,-10.399 8.608,-20.461 11.409,-31.581c0.228,-0.012 0.877,-0.097 1.527,-0.097c7.129,0 14.246,0.012 21.375,-0.024c1.394,0 2.332,0.145 2.188,1.912c-0.133,1.515 0.324,3.222 -2.128,3.222c-1.395,-0 -2.789,0.324 -4.184,0.36c-1.947,0.036 -2.512,1.215 -2.609,2.862c-0.024,0.469 0,0.937 0,1.406l0,61.493c0,3.534 0.541,4.051 3.992,4.196c1.526,0.06 3.041,0.348 4.52,0.516c0.108,0.157 0.24,0.253 0.264,0.373c0.393,3.054 -0.929,4.581 -3.967,4.581c-7.465,-0 -14.919,-0.049 -22.373,0.036c-1.779,0.024 -2.224,-0.674 -2.056,-2.249c0.145,-1.334 -0.601,-3.101 1.972,-2.945c1.587,0.108 3.246,-0.024 4.761,-0.445c0.829,-0.24 1.515,-1.238 2.092,-2.031c0.252,-0.361 0.072,-1.046 0.072,-1.587l-0,-63.609c-0.265,-0.036 -0.517,-0.084 -0.782,-0.12" style="fill:#f9f5ea;fill-rule:nonzero;"/><path d="M660.035,71.14c-1.406,3.703 -2.813,7.406 -4.231,11.108c-4.99,13.128 -9.991,26.256 -14.98,39.396c-2.513,6.601 -6.336,16.194 -8.812,22.806c-0.24,0.253 -3.102,0.084 -5.29,0.084c0,0 -0.649,-1.707 -0.913,-2.428c-2.369,-6.3 -4.148,-12.755 -6.492,-19.055c-5.855,-15.725 -11.71,-31.45 -17.552,-47.162c-0.433,-1.154 -0.842,-2.333 -1.251,-3.499c-0.168,0 -0.336,0.012 -0.517,0.024c-0.072,0.517 -0.204,1.034 -0.204,1.539c-0,20.233 0.168,40.418 0.18,60.639c0,2.332 1.563,3.354 4.857,3.655c1.323,0.12 3.066,0.252 4.46,0.192c-0.036,1.623 0.097,6.612 -0.024,6.612l-26.845,0c0,0 0.024,-1.022 0.036,-3.678c0,-0.722 0,-2.08 0.036,-2.898c2.08,0.036 4.821,-0.312 6.709,-0.649c2.344,-0.421 3.871,-1.31 3.871,-3.763l-0,-61.084c-0,-3.57 -0.145,-3.799 -3.559,-4.472c-1.166,-0.228 -2.392,-0.216 -3.594,-0.252c-1.732,-0.036 -2.633,-0.589 -2.597,-2.609c0.036,-1.839 0.384,-2.573 2.428,-2.537c6.985,0.133 13.982,0.048 20.967,0.048l1.683,0c4.039,12.9 9.173,25.09 13.717,37.497c2.717,7.442 5.518,14.859 8.283,22.277c0.349,0.914 0.697,1.731 1.226,2.801c4.412,-10.183 8.536,-20.546 12.359,-30.897c3.835,-10.399 8.608,-20.461 11.409,-31.581c0.228,-0.012 0.877,-0.097 1.527,-0.097c7.129,0 14.246,0.012 21.375,-0.024c1.394,0 2.332,0.145 2.188,1.912c-0.133,1.515 0.324,3.222 -2.128,3.222c-1.395,-0 -2.789,0.324 -4.184,0.36c-1.947,0.036 -2.512,1.215 -2.609,2.862c-0.024,0.469 0,0.937 0,1.406l0,61.493c0,3.534 0.541,4.051 3.992,4.196c1.526,0.06 3.041,0.348 4.52,0.516c0.108,0.157 0.24,0.253 0.264,0.373c0.393,3.054 -0.929,4.581 -3.967,4.581c-7.465,-0 -14.919,-0.049 -22.373,0.036c-1.779,0.024 -2.224,-0.674 -2.056,-2.249c0.145,-1.334 -0.601,-3.101 1.972,-2.945c1.587,0.108 3.246,-0.024 4.761,-0.445c0.829,-0.24 1.515,-1.238 2.092,-2.031c0.252,-0.361 0.072,-1.046 0.072,-1.587l-0,-63.609c-0.265,-0.036 -0.517,-0.084 -0.782,-0.12" style="fill-rule:nonzero;"/><path d="M942.228,139.1c0.521,3.303 -0.769,4.954 -3.871,4.954c-7.394,-0 -14.775,-0.012 -22.169,-0c-1.322,-0 -2.524,-0 -2.212,-1.84c0.229,-1.346 -0.925,-3.21 1.972,-3.39c1.959,-0.12 4.424,0.577 5.951,-1.503c0.433,-0.589 0.889,-1.358 0.889,-2.032c0.049,-21.158 0.024,-42.317 0.061,-63.488c-0,-1.971 -1.323,-2.681 -2.778,-3.101c-1.25,-0.373 -2.632,-0.457 -3.955,-0.433c-2.428,0.036 -2.068,-1.611 -2.188,-3.162c-0.132,-1.707 0.661,-1.972 2.128,-1.972c11.024,0.048 22.036,-0.168 33.049,0.109c6.359,0.156 12.575,1.514 17.84,5.542c3.222,2.464 5.074,5.806 5.903,9.689c1.214,5.627 1.214,11.145 -1.935,16.242c-2.477,4.04 -6.24,6.48 -10.544,8.175c-1.046,0.409 -2.152,0.709 -3.198,1.13c-0.372,0.144 -0.661,0.517 -0.985,0.782c0.324,0.264 0.601,0.649 0.973,0.793c4.99,1.851 8.416,5.254 10.327,10.207c1.058,2.729 2.056,5.482 3.198,8.175c1.671,3.919 3.414,7.79 5.17,11.673c0.997,2.212 2.777,3.138 5.181,2.921c0.457,-0.036 0.926,0.073 1.695,0.145c0,1.755 0.108,3.486 -0.072,5.181c-0.048,0.481 -0.974,1.311 -1.431,1.263c-3.931,-0.397 -8.006,0.012 -11.577,-2.405c-2.464,-1.671 -3.979,-4.015 -5.097,-6.552c-2.513,-5.722 -4.653,-11.613 -7.093,-17.372c-1.707,-4.027 -3.583,-8.054 -8.223,-9.521c-4.424,-1.395 -8.969,-1.972 -13.609,-1.238c-0.589,0.096 -1.19,0.132 -1.984,0.228c-0.036,0.661 -0.108,1.31 -0.108,1.96l0,24.789c0,2.26 1.142,3.378 3.39,3.522c1.719,0.109 3.439,0.337 5.254,0.517m-8.584,-53.846c0,4.965 0.036,9.942 -0.024,14.907c-0.012,1.359 0.409,1.96 1.84,1.912c3.546,-0.133 7.117,-0 10.651,-0.289c9.401,-0.781 14.463,-5.494 15.184,-13.873c0.926,-10.832 -3.535,-16.795 -14.162,-18.454c-3.763,-0.589 -7.622,-0.481 -11.433,-0.77c-1.587,-0.12 -2.116,0.457 -2.092,2.056c0.084,4.833 0.036,9.666 0.036,14.511" style="fill:#f9f5ea;fill-rule:nonzero;"/><path d="M942.228,139.1c0.521,3.303 -0.769,4.954 -3.871,4.954c-7.394,-0 -14.775,-0.012 -22.169,-0c-1.322,-0 -2.524,-0 -2.212,-1.84c0.229,-1.346 -0.925,-3.21 1.972,-3.39c1.959,-0.12 4.424,0.577 5.951,-1.503c0.433,-0.589 0.889,-1.358 0.889,-2.032c0.049,-21.158 0.024,-42.317 0.061,-63.488c-0,-1.971 -1.323,-2.681 -2.778,-3.101c-1.25,-0.373 -2.632,-0.457 -3.955,-0.433c-2.428,0.036 -2.068,-1.611 -2.188,-3.162c-0.132,-1.707 0.661,-1.972 2.128,-1.972c11.024,0.048 22.036,-0.168 33.049,0.109c6.359,0.156 12.575,1.514 17.84,5.542c3.222,2.464 5.074,5.806 5.903,9.689c1.214,5.627 1.214,11.145 -1.935,16.242c-2.477,4.04 -6.24,6.48 -10.544,8.175c-1.046,0.409 -2.152,0.709 -3.198,1.13c-0.372,0.144 -0.661,0.517 -0.985,0.782c0.324,0.264 0.601,0.649 0.973,0.793c4.99,1.851 8.416,5.254 10.327,10.207c1.058,2.729 2.056,5.482 3.198,8.175c1.671,3.919 3.414,7.79 5.17,11.673c0.997,2.212 2.777,3.138 5.181,2.921c0.457,-0.036 0.926,0.073 1.695,0.145c0,1.755 0.108,3.486 -0.072,5.181c-0.048,0.481 -0.974,1.311 -1.431,1.263c-3.931,-0.397 -8.006,0.012 -11.577,-2.405c-2.464,-1.671 -3.979,-4.015 -5.097,-6.552c-2.513,-5.722 -4.653,-11.613 -7.093,-17.372c-1.707,-4.027 -3.583,-8.054 -8.223,-9.521c-4.424,-1.395 -8.969,-1.972 -13.609,-1.238c-0.589,0.096 -1.19,0.132 -1.984,0.228c-0.036,0.661 -0.108,1.31 -0.108,1.96l0,24.789c0,2.26 1.142,3.378 3.39,3.522c1.719,0.109 3.439,0.337 5.254,0.517m-8.584,-53.846c0,4.965 0.036,9.942 -0.024,14.907c-0.012,1.359 0.409,1.96 1.84,1.912c3.546,-0.133 7.117,-0 10.651,-0.289c9.401,-0.781 14.463,-5.494 15.184,-13.873c0.926,-10.832 -3.535,-16.795 -14.162,-18.454c-3.763,-0.589 -7.622,-0.481 -11.433,-0.77c-1.587,-0.12 -2.116,0.457 -2.092,2.056c0.084,4.833 0.036,9.666 0.036,14.511" style="fill-rule:nonzero;"/><path d="M1136.4,139.076c0.168,0.289 0.228,0.337 0.228,0.397c0.377,3.054 -0.946,4.581 -3.967,4.581l-22.578,-0c-2.632,-0 -2.644,-0 -2.632,-2.621c-0,-0.722 0.06,-1.443 0.096,-2.272c1.695,-0.205 3.27,-0.481 4.845,-0.565c2.729,-0.145 3.919,-1.323 3.919,-4.088c-0,-20.293 -0.036,-40.586 0.036,-60.879c-0,-3.619 -0.012,-4.34 -4.34,-5.266c-0.457,-0.096 -0.938,-0.096 -1.407,-0.084c-3.582,0.132 -3.27,-0.698 -3.053,-4.16c0.024,-0.348 1.166,-0.902 1.779,-0.902c7.057,-0.06 14.114,-0.048 21.171,-0.048c1.551,0 3.089,0.061 4.64,0c1.251,-0.06 1.587,0.469 1.611,1.659c0.06,3.138 -0.156,3.367 -3.318,3.475c-1.322,0.036 -2.693,0.12 -3.967,0.469c-1.407,0.384 -2.441,1.214 -2.429,2.993c0.049,9.882 0.037,19.752 0,29.634c0,1.311 0.481,1.551 1.72,1.78c3.33,0.613 4.424,-2.032 5.963,-3.859c5.361,-6.396 10.591,-12.888 15.869,-19.344c2.368,-2.897 4.748,-5.782 7.069,-8.704c1.033,-1.298 0.613,-2.284 -1.094,-2.584c-1.106,-0.193 -2.249,-0.361 -3.367,-0.385c-1.562,-0.024 -2.284,-0.601 -2.248,-2.284c0.072,-2.814 -0.024,-2.826 2.861,-2.826c6.793,0 13.573,0.024 20.366,-0.012c1.31,0 2.248,0.109 2.068,1.804c-0.157,1.442 0.517,3.258 -1.996,3.318c-1.467,0.036 -2.957,0.144 -4.364,0.481c-0.962,0.228 -2.032,0.745 -2.657,1.466c-4.917,5.723 -9.738,11.529 -14.595,17.3c-2.837,3.378 -5.602,6.805 -8.535,10.099c-1.106,1.238 -0.962,2.115 -0.108,3.33c5.938,8.463 11.853,16.939 17.768,25.426c2.549,3.667 5.049,7.382 7.67,11c0.433,0.589 1.359,1.106 2.092,1.154c4.34,0.301 4.64,0.529 5.374,5.35l-17.697,0c0.265,-5.458 -4.039,-8.523 -6.612,-12.418c-4.845,-7.346 -10.17,-14.367 -15.22,-21.58c-0.817,-1.166 -1.635,-1.803 -3.089,-1.719c-1.876,0.096 -3.763,0.06 -5.639,0.012c-1.07,-0.024 -1.599,0.264 -1.587,1.467c0.037,8.74 0,17.468 0.037,26.208c-0,1.526 1.49,2.632 3.33,2.753c1.995,0.132 3.979,0.336 5.963,0.505" style="fill:#f9f5ea;fill-rule:nonzero;"/><path d="M1136.4,139.076c0.168,0.289 0.228,0.337 0.228,0.397c0.377,3.054 -0.946,4.581 -3.967,4.581l-22.578,-0c-2.632,-0 -2.644,-0 -2.632,-2.621c-0,-0.722 0.06,-1.443 0.096,-2.272c1.695,-0.205 3.27,-0.481 4.845,-0.565c2.729,-0.145 3.919,-1.323 3.919,-4.088c-0,-20.293 -0.036,-40.586 0.036,-60.879c-0,-3.619 -0.012,-4.34 -4.34,-5.266c-0.457,-0.096 -0.938,-0.096 -1.407,-0.084c-3.582,0.132 -3.27,-0.698 -3.053,-4.16c0.024,-0.348 1.166,-0.902 1.779,-0.902c7.057,-0.06 14.114,-0.048 21.171,-0.048c1.551,0 3.089,0.061 4.64,0c1.251,-0.06 1.587,0.469 1.611,1.659c0.06,3.138 -0.156,3.367 -3.318,3.475c-1.322,0.036 -2.693,0.12 -3.967,0.469c-1.407,0.384 -2.441,1.214 -2.429,2.993c0.049,9.882 0.037,19.752 0,29.634c0,1.311 0.481,1.551 1.72,1.78c3.33,0.613 4.424,-2.032 5.963,-3.859c5.361,-6.396 10.591,-12.888 15.869,-19.344c2.368,-2.897 4.748,-5.782 7.069,-8.704c1.033,-1.298 0.613,-2.284 -1.094,-2.584c-1.106,-0.193 -2.249,-0.361 -3.367,-0.385c-1.562,-0.024 -2.284,-0.601 -2.248,-2.284c0.072,-2.814 -0.024,-2.826 2.861,-2.826c6.793,0 13.573,0.024 20.366,-0.012c1.31,0 2.248,0.109 2.068,1.804c-0.157,1.442 0.517,3.258 -1.996,3.318c-1.467,0.036 -2.957,0.144 -4.364,0.481c-0.962,0.228 -2.032,0.745 -2.657,1.466c-4.917,5.723 -9.738,11.529 -14.595,17.3c-2.837,3.378 -5.602,6.805 -8.535,10.099c-1.106,1.238 -0.962,2.115 -0.108,3.33c5.938,8.463 11.853,16.939 17.768,25.426c2.549,3.667 5.049,7.382 7.67,11c0.433,0.589 1.359,1.106 2.092,1.154c4.34,0.301 4.64,0.529 5.374,5.35l-17.697,0c0.265,-5.458 -4.039,-8.523 -6.612,-12.418c-4.845,-7.346 -10.17,-14.367 -15.22,-21.58c-0.817,-1.166 -1.635,-1.803 -3.089,-1.719c-1.876,0.096 -3.763,0.06 -5.639,0.012c-1.07,-0.024 -1.599,0.264 -1.587,1.467c0.037,8.74 0,17.468 0.037,26.208c-0,1.526 1.49,2.632 3.33,2.753c1.995,0.132 3.979,0.336 5.963,0.505" style="fill-rule:nonzero;"/><path d="M839.127,139.149c1.948,-0.217 3.535,-0.469 5.134,-0.553c2.428,-0.133 3.738,-1.419 3.738,-3.872l0,-61.288c0,-3.811 -0.252,-4.135 -3.919,-4.941c-0.589,-0.132 -1.19,-0.252 -1.779,-0.228c-3.619,0.12 -3.246,-0.722 -3.102,-4.148c0.012,-0.324 0.601,-0.757 1.01,-0.902c0.493,-0.156 1.058,-0.06 1.599,-0.06l52.212,0c1.747,0 2.625,0.874 2.633,2.621c-0,4.364 -0.036,8.74 0.024,13.104c0.024,1.359 -0.361,1.912 -1.804,1.888c-6.191,-0.121 -4.568,0.769 -5.734,-5.002c-0.217,-1.045 -0.277,-2.115 -0.481,-3.161c-0.721,-3.739 -1.695,-4.028 -4.953,-3.992c-7.658,0.097 -15.316,0.073 -22.986,0c-1.635,-0.012 -2.032,0.517 -2.02,2.068c0.06,8.8 0.06,17.612 0,26.413c0,1.454 0.349,2.007 1.9,1.983c5.506,-0.084 11.024,-0.036 16.53,-0.036c1.827,0 2.861,-0.902 3.126,-2.681c0.288,-1.971 0.589,-3.955 0.793,-5.939c0.132,-1.286 0.625,-1.911 2.02,-1.887c4.712,0.096 3.859,-0.445 3.895,3.787c0.048,6.985 -0.036,13.981 0.048,20.966c0.024,1.683 -0.505,2.344 -2.164,2.128c-0.601,-0.072 -1.214,-0.06 -1.815,0c-1.419,0.12 -1.84,-0.661 -1.972,-1.911c-0.204,-1.984 -0.493,-3.968 -0.805,-5.939c-0.337,-2.14 -1.371,-3.018 -3.475,-3.018c-5.374,0 -10.747,0.048 -16.121,-0.036c-1.503,-0.024 -1.96,0.445 -1.948,1.948c0.06,10.086 0.048,20.161 0,30.235c0,1.395 0.409,1.863 1.827,1.863c9.678,-0.048 19.356,-0.048 29.034,0c1.935,0 2.825,-1.057 3.161,-2.704c0.614,-2.994 1.179,-6.011 1.611,-9.029c0.229,-1.623 0.662,-2.489 2.573,-2.44c4.16,0.108 4.16,-0 4.16,4.171c-0,4.508 -0.048,9.005 0.024,13.513c0.024,1.406 -0.289,2.02 -1.876,2.02c-19.415,-0.048 -38.843,-0.048 -58.258,-0c-1.371,-0 -1.996,-0.385 -1.864,-1.816c0.084,-0.986 0.012,-1.983 0.012,-3.125" style="fill:#f9f5ea;fill-rule:nonzero;"/><path d="M839.127,139.149c1.948,-0.217 3.535,-0.469 5.134,-0.553c2.428,-0.133 3.738,-1.419 3.738,-3.872l0,-61.288c0,-3.811 -0.252,-4.135 -3.919,-4.941c-0.589,-0.132 -1.19,-0.252 -1.779,-0.228c-3.619,0.12 -3.246,-0.722 -3.102,-4.148c0.012,-0.324 0.601,-0.757 1.01,-0.902c0.493,-0.156 1.058,-0.06 1.599,-0.06l52.212,0c1.747,0 2.625,0.874 2.633,2.621c-0,4.364 -0.036,8.74 0.024,13.104c0.024,1.359 -0.361,1.912 -1.804,1.888c-6.191,-0.121 -4.568,0.769 -5.734,-5.002c-0.217,-1.045 -0.277,-2.115 -0.481,-3.161c-0.721,-3.739 -1.695,-4.028 -4.953,-3.992c-7.658,0.097 -15.316,0.073 -22.986,0c-1.635,-0.012 -2.032,0.517 -2.02,2.068c0.06,8.8 0.06,17.612 0,26.413c0,1.454 0.349,2.007 1.9,1.983c5.506,-0.084 11.024,-0.036 16.53,-0.036c1.827,0 2.861,-0.902 3.126,-2.681c0.288,-1.971 0.589,-3.955 0.793,-5.939c0.132,-1.286 0.625,-1.911 2.02,-1.887c4.712,0.096 3.859,-0.445 3.895,3.787c0.048,6.985 -0.036,13.981 0.048,20.966c0.024,1.683 -0.505,2.344 -2.164,2.128c-0.601,-0.072 -1.214,-0.06 -1.815,0c-1.419,0.12 -1.84,-0.661 -1.972,-1.911c-0.204,-1.984 -0.493,-3.968 -0.805,-5.939c-0.337,-2.14 -1.371,-3.018 -3.475,-3.018c-5.374,0 -10.747,0.048 -16.121,-0.036c-1.503,-0.024 -1.96,0.445 -1.948,1.948c0.06,10.086 0.048,20.161 0,30.235c0,1.395 0.409,1.863 1.827,1.863c9.678,-0.048 19.356,-0.048 29.034,0c1.935,0 2.825,-1.057 3.161,-2.704c0.614,-2.994 1.179,-6.011 1.611,-9.029c0.229,-1.623 0.662,-2.489 2.573,-2.44c4.16,0.108 4.16,-0 4.16,4.171c-0,4.508 -0.048,9.005 0.024,13.513c0.024,1.406 -0.289,2.02 -1.876,2.02c-19.415,-0.048 -38.843,-0.048 -58.258,-0c-1.371,-0 -1.996,-0.385 -1.864,-1.816c0.084,-0.986 0.012,-1.983 0.012,-3.125" style="fill-rule:nonzero;"/><path d="M740.258,139.137c2.164,-0.205 4.016,-0.445 5.867,-0.553c1.972,-0.121 2.669,-1.01 1.96,-3.042c-1.275,-3.643 -2.657,-7.249 -4.016,-10.856c-1.118,-2.993 -2.368,-5.939 -3.354,-8.98c-0.493,-1.503 -1.25,-1.936 -2.753,-1.924c-8.199,0.06 -16.386,0.06 -24.585,0c-1.383,0 -2.092,0.469 -2.549,1.683c-2.452,6.612 -4.953,13.212 -7.405,19.824c-0.746,2.008 0.12,3.186 2.248,3.295c1.671,0.084 3.342,0.192 4.977,0.456c0.457,0.072 0.89,0.698 1.202,1.154c0.156,0.229 0.036,0.65 0.036,0.986c0.016,1.916 -0.909,2.874 -2.777,2.874c-6.311,-0 -12.635,-0.037 -18.947,0.024c-1.49,0.012 -1.983,-0.433 -1.959,-1.948c0.048,-2.969 -0.048,-3.126 3.005,-3.595c2.862,-0.444 4.509,-1.599 5.555,-4.604c3.57,-10.315 7.549,-20.474 11.372,-30.704c4.989,-13.345 9.967,-26.677 15.016,-39.997c0.204,-0.553 1.058,-1.179 1.647,-1.215c2.068,-0.132 4.556,-0.709 6.119,0.205c1.383,0.793 1.876,3.306 2.573,5.121c4.785,12.419 9.521,24.862 14.282,37.292c4.075,10.628 8.151,21.255 12.274,31.859c0.205,0.541 0.902,1.046 1.479,1.238c1.19,0.397 2.453,0.589 3.691,0.817c1.971,0.361 3.306,3.355 2.128,5.026c-0.229,0.324 -0.938,0.444 -1.419,0.456c-7.994,0.025 -15.989,0 -23.984,0.049c-1.334,-0 -1.815,-0.457 -1.707,-1.756c0.072,-0.985 0.012,-1.995 0.012,-3.185m-14.366,-62.743l-0.842,-0.048c-3.715,10.447 -7.429,20.906 -11.192,31.497l23.719,0c-3.967,-10.699 -7.826,-21.074 -11.685,-31.461" style="fill:#f9f5ea;fill-rule:nonzero;"/><path d="M740.258,139.137c2.164,-0.205 4.016,-0.445 5.867,-0.553c1.972,-0.121 2.669,-1.01 1.96,-3.042c-1.275,-3.643 -2.657,-7.249 -4.016,-10.856c-1.118,-2.993 -2.368,-5.939 -3.354,-8.98c-0.493,-1.503 -1.25,-1.936 -2.753,-1.924c-8.199,0.06 -16.386,0.06 -24.585,0c-1.383,0 -2.092,0.469 -2.549,1.683c-2.452,6.612 -4.953,13.212 -7.405,19.824c-0.746,2.008 0.12,3.186 2.248,3.295c1.671,0.084 3.342,0.192 4.977,0.456c0.457,0.072 0.89,0.698 1.202,1.154c0.156,0.229 0.036,0.65 0.036,0.986c0.016,1.916 -0.909,2.874 -2.777,2.874c-6.311,-0 -12.635,-0.037 -18.947,0.024c-1.49,0.012 -1.983,-0.433 -1.959,-1.948c0.048,-2.969 -0.048,-3.126 3.005,-3.595c2.862,-0.444 4.509,-1.599 5.555,-4.604c3.57,-10.315 7.549,-20.474 11.372,-30.704c4.989,-13.345 9.967,-26.677 15.016,-39.997c0.204,-0.553 1.058,-1.179 1.647,-1.215c2.068,-0.132 4.556,-0.709 6.119,0.205c1.383,0.793 1.876,3.306 2.573,5.121c4.785,12.419 9.521,24.862 14.282,37.292c4.075,10.628 8.151,21.255 12.274,31.859c0.205,0.541 0.902,1.046 1.479,1.238c1.19,0.397 2.453,0.589 3.691,0.817c1.971,0.361 3.306,3.355 2.128,5.026c-0.229,0.324 -0.938,0.444 -1.419,0.456c-7.994,0.025 -15.989,0 -23.984,0.049c-1.334,-0 -1.815,-0.457 -1.707,-1.756c0.072,-0.985 0.012,-1.995 0.012,-3.185m-14.366,-62.743l-0.842,-0.048c-3.715,10.447 -7.429,20.906 -11.192,31.497l23.719,0c-3.967,-10.699 -7.826,-21.074 -11.685,-31.461" style="fill-rule:nonzero;"/><path d="M1088.49,122.282c0.24,-0.109 0.3,-0.145 0.361,-0.157c4.095,-0.392 6.143,1.431 6.143,5.47c-0,3.896 -0.06,7.791 0.036,11.686c0.036,1.551 -0.517,2.296 -1.984,2.705c-6.047,1.695 -12.142,2.909 -18.43,3.366c-5.95,0.433 -11.721,-0.072 -17.383,-1.743c-7.165,-2.104 -13.092,-6.156 -17.889,-11.926c-4.701,-5.662 -8.007,-11.998 -9.173,-19.271c-2.164,-13.573 -0.625,-26.329 8.776,-37.257c6.252,-7.249 14.162,-11.264 23.503,-12.875c10.544,-1.816 20.69,-0.012 30.777,2.873c1.274,0.361 1.815,0.926 1.791,2.356c-0.096,4.965 -0.084,9.943 -0,14.92c0.024,1.502 -0.457,1.983 -1.948,1.947c-5.939,-0.144 -4.424,0.794 -5.614,-4.953c-0.493,-2.38 -0.769,-4.905 -1.791,-7.057c-1.154,-2.428 -4.052,-2.717 -6.372,-3.246c-8.127,-1.875 -16.134,-1.539 -23.431,2.958c-6.287,3.883 -10.327,9.641 -12.286,16.734c-2.765,10.027 -2.681,20.089 0.601,29.971c3.198,9.618 9.533,16.29 19.511,19.007c6.384,1.743 12.852,1.731 19.164,-0.216c1.238,-0.385 2.512,-2.104 2.909,-3.451c1.142,-3.883 1.839,-7.886 2.717,-11.877" style="fill:#f9f5ea;fill-rule:nonzero;"/><path d="M1088.49,122.282c0.24,-0.109 0.3,-0.145 0.361,-0.157c4.095,-0.392 6.143,1.431 6.143,5.47c-0,3.896 -0.06,7.791 0.036,11.686c0.036,1.551 -0.517,2.296 -1.984,2.705c-6.047,1.695 -12.142,2.909 -18.43,3.366c-5.95,0.433 -11.721,-0.072 -17.383,-1.743c-7.165,-2.104 -13.092,-6.156 -17.889,-11.926c-4.701,-5.662 -8.007,-11.998 -9.173,-19.271c-2.164,-13.573 -0.625,-26.329 8.776,-37.257c6.252,-7.249 14.162,-11.264 23.503,-12.875c10.544,-1.816 20.69,-0.012 30.777,2.873c1.274,0.361 1.815,0.926 1.791,2.356c-0.096,4.965 -0.084,9.943 -0,14.92c0.024,1.502 -0.457,1.983 -1.948,1.947c-5.939,-0.144 -4.424,0.794 -5.614,-4.953c-0.493,-2.38 -0.769,-4.905 -1.791,-7.057c-1.154,-2.428 -4.052,-2.717 -6.372,-3.246c-8.127,-1.875 -16.134,-1.539 -23.431,2.958c-6.287,3.883 -10.327,9.641 -12.286,16.734c-2.765,10.027 -2.681,20.089 0.601,29.971c3.198,9.618 9.533,16.29 19.511,19.007c6.384,1.743 12.852,1.731 19.164,-0.216c1.238,-0.385 2.512,-2.104 2.909,-3.451c1.142,-3.883 1.839,-7.886 2.717,-11.877" style="fill-rule:nonzero;"/><path d="M794.634,130.577c1.466,-3.943 2.777,-7.394 4.027,-10.868c5.626,-15.665 11.229,-31.329 16.867,-46.982c1.01,-2.801 0.625,-3.583 -2.344,-4.124c-1.106,-0.204 -2.248,-0.252 -3.366,-0.36c-2.092,-0.205 -2.261,-0.637 -2.261,-3.499c0,-1.887 1.191,-1.587 2.297,-1.587l19.752,0c0.974,0 2.26,-0.228 2.007,1.395c-0.216,1.346 1.106,3.474 -1.659,3.727c-0.396,0.036 -0.781,0.324 -1.154,0.3c-3.883,-0.288 -5.169,2.092 -6.335,5.338c-5.879,16.422 -11.986,32.76 -18.021,49.122c-2.465,6.684 -4.905,13.381 -7.454,20.029c-0.228,0.613 -1.154,1.31 -1.791,1.358c-7.117,0.529 -6.997,0.457 -9.486,-6.215c-5.337,-14.354 -10.819,-28.649 -16.217,-42.967c-2.982,-7.91 -5.999,-15.809 -8.812,-23.779c-0.77,-2.176 -2.345,-2.429 -4.088,-2.765c-0.853,-0.169 -1.707,-0.373 -2.561,-0.397c-1.635,-0.06 -2.176,-0.818 -2.127,-2.429c0.084,-2.705 -0,-2.717 2.777,-2.717c7.658,0 15.316,0.024 22.974,-0.024c1.551,0 2.524,0.109 2.416,2.104c-0.144,2.753 -0.168,2.91 -2.537,3.03c-1.262,0.06 -2.524,0.192 -3.762,0.433c-1.431,0.264 -1.996,1.466 -1.479,2.837c5.818,15.664 11.637,31.317 17.456,46.982c1.202,3.246 2.416,6.492 3.655,9.714c0.252,0.661 0.649,1.25 1.226,2.344" style="fill:#f9f5ea;fill-rule:nonzero;"/><path d="M794.634,130.577c1.466,-3.943 2.777,-7.394 4.027,-10.868c5.626,-15.665 11.229,-31.329 16.867,-46.982c1.01,-2.801 0.625,-3.583 -2.344,-4.124c-1.106,-0.204 -2.248,-0.252 -3.366,-0.36c-2.092,-0.205 -2.261,-0.637 -2.261,-3.499c0,-1.887 1.191,-1.587 2.297,-1.587l19.752,0c0.974,0 2.26,-0.228 2.007,1.395c-0.216,1.346 1.106,3.474 -1.659,3.727c-0.396,0.036 -0.781,0.324 -1.154,0.3c-3.883,-0.288 -5.169,2.092 -6.335,5.338c-5.879,16.422 -11.986,32.76 -18.021,49.122c-2.465,6.684 -4.905,13.381 -7.454,20.029c-0.228,0.613 -1.154,1.31 -1.791,1.358c-7.117,0.529 -6.997,0.457 -9.486,-6.215c-5.337,-14.354 -10.819,-28.649 -16.217,-42.967c-2.982,-7.91 -5.999,-15.809 -8.812,-23.779c-0.77,-2.176 -2.345,-2.429 -4.088,-2.765c-0.853,-0.169 -1.707,-0.373 -2.561,-0.397c-1.635,-0.06 -2.176,-0.818 -2.127,-2.429c0.084,-2.705 -0,-2.717 2.777,-2.717c7.658,0 15.316,0.024 22.974,-0.024c1.551,0 2.524,0.109 2.416,2.104c-0.144,2.753 -0.168,2.91 -2.537,3.03c-1.262,0.06 -2.524,0.192 -3.762,0.433c-1.431,0.264 -1.996,1.466 -1.479,2.837c5.818,15.664 11.637,31.317 17.456,46.982c1.202,3.246 2.416,6.492 3.655,9.714c0.252,0.661 0.649,1.25 1.226,2.344" style="fill-rule:nonzero;"/><path d="M1005.86,63.157l13.104,0c1.021,0 2.139,-0.144 1.983,1.455c-0.132,1.395 0.697,3.282 -1.695,3.583c-1.719,0.216 -3.462,0.288 -5.181,0.468c-1.792,0.181 -2.802,1.167 -2.802,3.006l0,63.909c0,1.948 1.227,2.741 2.886,2.969c1.779,0.241 3.594,0.361 5.386,0.421c1.021,0.036 1.49,0.397 1.406,1.431c-0.024,0.336 0,0.673 0,1.01c0,1.771 -0.861,2.661 -2.585,2.669c-8.595,-0 -17.203,-0.036 -25.799,0.036c-1.671,0.012 -2.308,-0.481 -2.14,-2.164c0.145,-1.431 -0.517,-2.958 2.104,-3.09c2.14,-0.12 4.641,0.577 6.456,-1.286c0.541,-0.553 1.106,-1.383 1.106,-2.092c0.06,-21.231 0.036,-42.462 0.06,-63.705c0,-1.947 -1.13,-2.789 -2.789,-3.065c-1.575,-0.265 -3.186,-0.421 -4.785,-0.421c-2.44,-0 -2.044,-1.647 -2.164,-3.186c-0.132,-1.731 0.698,-1.984 2.152,-1.96c4.436,0.06 8.872,0.024 13.309,0.024" style="fill:#f9f5ea;fill-rule:nonzero;"/><path d="M1005.86,63.157l13.104,0c1.021,0 2.139,-0.144 1.983,1.455c-0.132,1.395 0.697,3.282 -1.695,3.583c-1.719,0.216 -3.462,0.288 -5.181,0.468c-1.792,0.181 -2.802,1.167 -2.802,3.006l0,63.909c0,1.948 1.227,2.741 2.886,2.969c1.779,0.241 3.594,0.361 5.386,0.421c1.021,0.036 1.49,0.397 1.406,1.431c-0.024,0.336 0,0.673 0,1.01c0,1.771 -0.861,2.661 -2.585,2.669c-8.595,-0 -17.203,-0.036 -25.799,0.036c-1.671,0.012 -2.308,-0.481 -2.14,-2.164c0.145,-1.431 -0.517,-2.958 2.104,-3.09c2.14,-0.12 4.641,0.577 6.456,-1.286c0.541,-0.553 1.106,-1.383 1.106,-2.092c0.06,-21.231 0.036,-42.462 0.06,-63.705c0,-1.947 -1.13,-2.789 -2.789,-3.065c-1.575,-0.265 -3.186,-0.421 -4.785,-0.421c-2.44,-0 -2.044,-1.647 -2.164,-3.186c-0.132,-1.731 0.698,-1.984 2.152,-1.96c4.436,0.06 8.872,0.024 13.309,0.024" style="fill-rule:nonzero;"/><path d="M432.603,118.555l-6.612,-13.609l-0.565,0.084l-0.361,0.06l-2.501,0.373c4.244,7.189 8.139,13.933 8.223,14.066l1.816,-0.962l-0,-0.012Z" style="fill-rule:nonzero;"/><path d="M425.979,104.934l-0.553,0.096l0.565,-0.084l-0.012,-0.012Z" style="fill-rule:nonzero;"/><path d="M437.784,106.869l-2.933,-1.971c-1.659,-0.132 -3.078,-0.229 -4.112,-0.289l5.579,3.751c0.108,0.397 0.276,1.094 0.492,2.008l-8.247,-4.893l0.277,1.25l8.584,6.408c0.132,0.649 0.276,1.334 0.396,2.044l-6.972,-4.136l0.276,1.25l7.093,5.206c0.108,0.673 0.204,1.358 0.289,2.032l-5.759,-3.691l0.277,1.25l5.71,4.809c0.06,0.829 0.096,1.647 0.096,2.416l-4.592,-2.717l0.276,1.251l4.124,4.015c-0.193,1.118 -0.589,2.068 -1.178,2.801l-3.415,-4.821l-0.384,0.589l2.067,5.567c-1.322,0.601 -2.969,0.685 -4.7,0.312l0.962,-5.975l-0.565,-1.527l-1.828,7.081c-0.673,-0.252 -1.358,-0.565 -2.019,-0.949l2.164,-8.38l-0.361,-0.877l-3.21,8.283c-0.589,-0.493 -1.178,-1.094 -1.767,-1.767l2.933,-7.923l-0.361,-0.889l-3.907,7.165c-0.396,-0.517 -0.781,-1.058 -1.154,-1.623l3.643,-8.392l-0.361,-0.889l-4.556,7.321c-0.265,-0.421 -0.517,-0.841 -0.758,-1.262l3.379,-8.836l-0.361,-0.878l-4.184,7.67c-0.168,-0.301 -0.324,-0.589 -0.481,-0.878l3.03,-9.689l-0.361,-0.89l-3.775,8.415l0.024,0.073c-0.348,-0.698 -0.613,-1.239 -0.769,-1.575l2.609,-8.163l-2.08,0.312l0.469,-2.031c0.06,-0.265 0.144,-0.601 0.24,-0.974l-4.003,4.532l-0.349,-0.817l3.595,-6.925l-0.361,-0.89l-4.219,5.518l-0.505,-1.19l3.294,-7.045l-0.361,-0.889l-3.895,5.674l-0.313,-0.733l4.196,-8.079c1.166,1.863 2.573,4.196 4.087,6.72c0.529,-1.671 1.191,-3.45 1.936,-4.953l-1.779,-3.654l4.388,0.252c-0,-0 0.084,-0.06 0.132,-0.084c0.818,-0.433 2.404,-0.89 4.304,-1.347l-0.757,-0.42l-7.13,-0.409l3.355,-2.741l-0.722,-1.828l-3.739,0.253c0.782,-0.781 1.479,-1.695 1.659,-2.537l-2.007,-0.433c-0.132,0.65 -1.371,1.864 -2.645,2.838l-2.056,-4.22l-0.541,-0.505l-6.552,-2.693l-1.274,1.479c-0,-0 2.284,3.835 4.809,7.598c-1.707,0.288 -4.629,0.673 -7.346,0.433l-0.18,2.043c2.344,0.205 4.797,0 6.612,-0.264l-2.597,3.077l1.022,1.671l5.146,-1.214l-4.413,8.488l-0.036,0.877l3.932,9.245l1.719,0.277l2.116,-2.393l-1.888,5.879l0.048,0.746c0.241,0.541 6.156,13.284 11.698,16.794c2.055,1.311 4.28,2.044 6.359,2.164c1.539,0.084 3.006,-0.168 4.28,-0.769c1.611,-0.77 3.619,-2.465 4.052,-6.167c0.781,-6.901 -2.429,-18.719 -2.573,-19.212l-0.421,-0.577l0.084,0.036Zm-18.273,-20.629l-1.876,1.526l-0.661,-1.358l2.537,-0.168Zm-9.185,3.763l1.563,-1.852c0.156,0.217 0.312,0.433 0.469,0.649c0.12,0.169 0.276,0.385 0.432,0.613l-2.464,0.578l-0,0.012Zm-1.491,-10.219l3.27,1.346l7.322,15.064c-2.381,-3.955 -4.424,-7.249 -5.41,-8.596c-1.84,-2.524 -3.835,-5.638 -5.182,-7.814" style="fill-rule:nonzero;"/><path d="M433.096,103.72l-2.934,0.505l0.084,0.06l2.922,-0.529l-0.072,-0.036Z" style="fill-rule:nonzero;"/><path d="M542.748,83.715l-6.371,20.774l2.524,0.95l5.987,-20.341c0,-0 12.275,-5.026 21.111,-15.918c11.77,-14.51 13.465,-28.828 13.465,-28.828l-1.768,-2.477c0,0 -0.805,13.188 -13.019,28.925c-8.139,10.483 -21.917,16.915 -21.917,16.915" style="fill-rule:nonzero;"/><path d="M531.616,77.728l-15.46,-1.07c-1.13,0.505 -2.248,0.95 -3.33,1.371l3.799,0.12l-0.626,2.116l15.617,1.551l-1.635,4.604l1.96,0.264l-3.847,5.062l-2.85,8.042l4.629,1.984l6.636,-20.654c4.015,-2.104 15.605,-8.644 21.94,-17.203c8.476,-11.457 12.167,-26.461 12.924,-29.863l-4.917,0c-1.443,6.203 -4.556,15.496 -11.325,25.763c-6.155,9.353 -23.539,17.937 -23.539,17.937" style="fill:#ba1717;fill-rule:nonzero;"/><path d="M492.148,156.292c-0,-0 -1.323,9.473 -5.218,16.759c-3.895,7.285 -0.168,0.324 -0.168,0.324l5.951,-0.048l0.06,-0.084l-0.012,-0c4.16,-8.247 5.001,-16.146 5.001,-16.146l4.821,-8.187l-3.054,-3.835l-4.304,7.057l-9.761,-12.755c-0.409,1.647 -0.914,3.402 -1.515,5.23l8.223,11.685l-0.024,-0Z" style="fill:#ba1717;fill-rule:nonzero;"/><path d="M511.395,147.588c-6.528,-6.336 -12.238,-15.544 -15.076,-20.473l-0.673,2.849c2.717,4.604 7.322,11.805 12.623,17.48c0.541,0.577 1.082,1.13 1.635,1.671c1.275,1.238 2.585,2.404 3.932,3.522c0.06,0.048 0.108,0.096 0.168,0.132c0.625,0.517 1.25,1.01 1.887,1.491c0.108,0.084 0.229,0.169 0.337,0.253c0.589,0.444 1.19,0.877 1.791,1.298c0.229,0.156 0.445,0.313 0.673,0.469c0.493,0.337 0.986,0.673 1.479,0.998c15.124,9.81 32.664,13.116 43.64,14.222c0.313,-0.289 9.93,0.721 10.243,0.433c-0.661,-0.061 -1.371,-0.133 -2.128,-0.217l0.108,0c0.253,-0.24 10.964,0.048 11.217,-0.204c-25.042,-1.527 -55.073,-7.61 -71.856,-23.936" style="fill-rule:nonzero;"/><path d="M457.669,173.255c5.83,-2.765 11.264,-6.456 14.582,-11.445c10.303,-15.496 11.902,-28.985 12.01,-35.236l-0.084,-0.746c-1.731,-0.962 -3.654,-2.044 -5.674,-3.162l-0.06,3.811c-0.096,5.939 -1.659,18.009 -11.036,32.111c-2.333,3.499 -6.444,6.672 -12.239,9.413l-12.034,5.711l13.898,-0.108l0.625,-0.349l0.012,0Z" style="fill-rule:nonzero;"/><path d="M491.09,72.366c2.573,-0.144 4.184,-0.24 4.256,-0.252l7.465,-0.433l-2.56,3.871c7.61,-2.753 16.65,-7.718 25.27,-16.674c7.333,-7.622 11.265,-16.723 13.356,-24.838l-6.023,0c-2.356,8.295 -6.227,15.292 -11.529,20.81c-10.699,11.133 -22.06,15.545 -30.127,17.276l0.06,-0l-0.168,0.252l-0,-0.012Z" style="fill-rule:nonzero;"/></svg>