<svg width="3715" height="602" viewBox="0 0 3715 602" fill="none" xmlns="http://www.w3.org/2000/svg">
<path d="M235.412 161.25C280.886 161.25 316.128 172.592 341.133 195.255C366.145 217.955 378.658 249.913 378.658 291.224C378.658 314.223 374.572 334.659 366.434 352.517C358.283 370.396 346.183 385.394 330.151 397.532C318.774 406.129 305.956 412.28 291.682 415.99C277.403 419.733 258.647 421.585 235.412 421.585H139.719V405.673L161.695 403.777L168.335 398.291V184.554L161.695 179.058L139.719 176.785V161.248L235.412 161.25ZM203.202 179.058V403.775H233.897C269.254 403.775 295.698 394.47 313.185 375.821C330.678 357.206 339.429 329.003 339.429 291.224C339.429 253.445 330.744 225.331 313.392 206.816C296.012 188.321 269.515 179.059 233.897 179.059L203.202 179.058Z" fill="white"/>
<path d="M498.226 158.018H523.793L616.839 400.93L640.143 405.666V421.578H552.033V405.666L576.097 403.774L578.935 398.288L550.901 324.186H459.375L431.715 398.288L435.692 403.774L460.893 405.666V421.578H384.906V405.666L407.265 400.93L498.223 158.018H498.226ZM504.291 198.757L466.008 306.385H544.267L504.291 198.757Z" fill="white"/>
<path d="M665.977 421.582V405.668L690.797 403.772L697.427 398.292V184.556L690.797 179.055L665.977 176.785V161.252H764.506V176.785L739.682 179.055L733.052 184.556V398.292L739.682 403.772L764.506 405.668V421.582H665.977Z" fill="white"/>
<path d="M975.664 161.25H1065.86V176.789L1043.68 179.06L1039.71 183.419L1099.21 290.102L1164.39 186.446L1160.78 180.944L1137.1 176.789V161.25H1216.3V176.789L1192.62 181.702L1111.89 310.929V398.291L1118.14 403.777L1144.49 405.668V421.58H1044.07V405.668L1070.4 403.777L1076.66 398.291V316.05L999.351 180.573L975.664 176.789V161.25Z" fill="white"/>
<path d="M1996.01 190.161C1991.56 201.858 1987.11 213.56 1982.66 225.261C1966.88 266.757 1951.09 308.248 1935.33 349.744C1927.41 370.593 1915.31 400.927 1907.49 421.808C1906.71 422.596 1897.7 422.086 1890.75 422.086C1890.75 422.086 1888.71 416.697 1887.86 414.426C1880.39 394.53 1874.74 374.117 1867.33 354.202C1848.84 304.512 1830.34 254.84 1811.85 205.154C1810.49 201.489 1809.2 197.783 1807.88 194.1C1807.34 194.121 1806.81 194.143 1806.26 194.167C1806.04 195.795 1805.62 197.425 1805.62 199.048C1805.59 262.966 1806.14 326.76 1806.18 390.68C1806.19 398.056 1811.11 401.286 1821.54 402.213C1825.71 402.579 1831.23 403.014 1835.64 402.818C1835.51 407.959 1835.94 423.72 1835.56 423.72H1821.67C1802.13 423.732 1770.3 423.732 1750.76 423.72C1750.76 423.72 1750.84 420.507 1750.89 412.094C1750.9 409.813 1750.88 405.513 1750.99 402.937C1757.55 403.041 1766.21 401.945 1772.17 400.894C1779.6 399.579 1784.4 396.737 1784.4 389.016C1784.41 324.673 1784.41 260.327 1784.41 195.99C1784.41 184.695 1783.97 183.977 1773.17 181.867C1769.48 181.145 1765.61 181.172 1761.82 181.079C1756.35 180.948 1753.5 179.205 1753.62 172.821C1753.74 167.008 1754.82 164.675 1761.29 164.798C1783.37 165.2 1805.46 164.949 1827.55 164.949H1832.86C1845.63 205.698 1861.86 244.236 1876.21 283.456C1884.81 306.962 1893.63 330.399 1902.38 353.853C1903.46 356.745 1904.58 359.339 1906.24 362.717C1920.19 330.54 1933.22 297.795 1945.29 265.08C1957.41 232.235 1972.49 200.42 1981.34 165.292C1982.05 165.237 1984.1 164.971 1986.14 164.971C2008.66 164.943 2031.17 165.02 2053.68 164.889C2058.1 164.869 2061.06 165.331 2060.58 170.946C2060.17 175.746 2061.62 181.114 2053.86 181.124C2049.46 181.129 2045.06 182.16 2040.66 182.247C2034.52 182.378 2032.73 186.082 2032.42 191.289C2032.34 192.771 2032.4 194.26 2032.4 195.746V390.047C2032.4 401.22 2034.11 402.86 2045 403.312C2049.81 403.514 2054.6 404.397 2059.27 404.958C2059.62 405.443 2060.04 405.757 2060.09 406.118C2061.35 415.778 2057.17 420.608 2047.56 420.608C2023.99 420.608 2000.42 420.441 1976.85 420.729C1971.21 420.795 1969.81 418.603 1970.35 413.635C1970.81 409.403 1968.46 403.824 1976.59 404.341C1981.59 404.668 1986.85 404.282 1991.63 402.943C1994.26 402.201 1996.44 399.03 1998.23 396.535C1999.04 395.396 1998.47 393.234 1998.47 391.535C1998.47 326.771 1998.47 262.008 1998.47 197.239V190.539C1997.65 190.412 1996.83 190.287 1996.01 190.162" fill="white"/>
<path d="M2887.74 404.929C2889.37 415.364 2885.3 420.581 2875.51 420.581C2852.17 420.581 2828.82 420.536 2805.46 420.619C2801.29 420.633 2797.5 420.651 2798.49 414.806C2799.2 410.566 2795.55 404.673 2804.74 404.09C2810.95 403.697 2818.72 405.915 2823.56 399.35C2824.93 397.498 2826.37 395.072 2826.37 392.912C2826.52 326.045 2826.45 259.179 2826.55 192.306C2826.56 186.062 2822.37 183.851 2817.78 182.494C2813.82 181.328 2809.45 181.061 2805.28 181.116C2797.59 181.225 2798.73 176.031 2798.36 171.128C2797.96 165.747 2800.44 164.881 2805.09 164.897C2839.91 165.044 2874.74 164.356 2909.53 165.24C2929.64 165.752 2949.26 170.018 2965.9 182.756C2976.09 190.551 2981.91 201.086 2984.56 213.387C2988.4 231.152 2988.38 248.592 2978.46 264.727C2970.62 277.486 2958.74 285.189 2945.13 290.572C2941.81 291.879 2938.34 292.811 2935.03 294.146C2933.85 294.615 2932.95 295.762 2931.93 296.603C2932.95 297.453 2933.84 298.662 2935.01 299.098C2950.76 304.949 2961.6 315.713 2967.65 331.366C2970.98 339.99 2974.16 348.685 2977.77 357.187C2983.04 369.559 2988.55 381.822 2994.1 394.065C2997.27 401.042 3002.88 403.969 3010.48 403.315C3011.91 403.189 3013.39 403.538 3015.84 403.756C3015.84 409.291 3016.18 414.757 3015.62 420.122C3015.46 421.657 3012.54 424.245 3011.11 424.098C2998.7 422.833 2985.83 424.148 2974.55 416.494C2966.78 411.22 2961.96 403.799 2958.44 395.797C2950.49 377.709 2943.75 359.094 2936.04 340.898C2930.66 328.188 2924.72 315.447 2910.05 310.811C2896.06 306.398 2881.72 304.562 2867.06 306.916C2865.19 307.216 2863.3 307.351 2860.78 307.634C2860.66 309.743 2860.44 311.785 2860.44 313.828C2860.42 339.94 2860.41 366.051 2860.43 392.162C2860.44 399.288 2864.04 402.834 2871.14 403.292C2876.59 403.639 2882.01 404.349 2887.73 404.928M2860.62 234.791C2860.62 250.493 2860.72 266.204 2860.55 281.905C2860.51 286.198 2861.84 288.11 2866.37 287.934C2877.58 287.515 2888.86 287.94 2900.02 287.014C2929.74 284.546 2945.73 269.662 2948 243.157C2950.93 208.935 2936.84 190.103 2903.25 184.861C2891.38 183.01 2879.16 183.33 2867.12 182.448C2862.13 182.078 2860.43 183.908 2860.52 188.951C2860.78 204.227 2860.62 219.508 2860.62 234.79" fill="white"/>
<path d="M3501.31 404.864C3501.84 405.762 3502.02 405.927 3502.04 406.111C3503.24 415.772 3499.06 420.603 3489.5 420.603C3465.73 420.603 3441.95 420.607 3418.16 420.597C3409.83 420.593 3409.81 420.575 3409.86 412.305C3409.87 410.017 3410.05 407.729 3410.17 405.109C3415.54 404.455 3420.49 403.578 3425.49 403.311C3434.12 402.859 3437.87 399.138 3437.87 390.389C3437.87 326.263 3437.77 262.136 3437.97 198.01C3438.01 186.574 3437.92 184.297 3424.27 181.357C3422.84 181.052 3421.31 181.046 3419.84 181.096C3408.51 181.498 3409.5 178.889 3410.21 167.955C3410.28 166.844 3413.87 165.112 3415.84 165.095C3438.14 164.888 3460.43 164.959 3482.73 164.959C3487.61 164.959 3492.51 165.15 3497.38 164.923C3501.33 164.731 3502.41 166.403 3502.48 170.157C3502.67 180.055 3501.99 180.812 3492 181.123C3487.81 181.254 3483.49 181.5 3479.47 182.595C3475.02 183.804 3471.77 186.44 3471.79 192.041C3471.94 223.254 3471.93 254.468 3471.79 285.684C3471.78 289.83 3473.31 290.576 3477.24 291.312C3487.77 293.268 3491.22 284.9 3496.08 279.114C3513.02 258.92 3529.56 238.387 3546.24 217.973C3553.71 208.826 3561.23 199.712 3568.59 190.474C3571.86 186.371 3570.52 183.266 3565.15 182.318C3561.63 181.698 3558.06 181.18 3554.5 181.119C3549.54 181.033 3547.26 179.235 3547.39 173.885C3547.6 164.983 3547.33 164.968 3556.45 164.968C3577.89 164.962 3599.34 165.033 3620.79 164.914C3624.94 164.891 3627.91 165.268 3627.33 170.611C3626.84 175.184 3628.96 180.898 3621.03 181.109C3616.4 181.235 3611.69 181.546 3607.23 182.635C3604.2 183.37 3600.8 184.973 3598.83 187.272C3583.29 205.348 3568.06 223.694 3552.73 241.955C3543.77 252.621 3535.02 263.47 3525.75 273.853C3522.27 277.749 3522.72 280.548 3525.4 284.362C3544.19 311.095 3562.86 337.898 3581.54 364.702C3589.61 376.289 3597.49 388.019 3605.77 399.448C3607.13 401.322 3610.07 402.924 3612.38 403.081C3626.11 404.033 3627.03 404.747 3629.35 419.991H3573.42C3574.23 402.732 3560.67 393.056 3552.54 380.751C3537.22 357.548 3520.4 335.337 3504.44 312.549C3501.87 308.87 3499.29 306.859 3494.66 307.111C3488.74 307.434 3482.78 307.309 3476.83 307.15C3473.46 307.063 3471.8 307.988 3471.82 311.769C3471.92 339.373 3471.82 366.977 3471.93 394.584C3471.94 399.405 3476.64 402.886 3482.47 403.272C3488.77 403.686 3495.05 404.324 3501.31 404.868" fill="white"/>
<path d="M2561.94 405.057C2568.11 404.369 2573.11 403.569 2578.15 403.303C2585.82 402.899 2589.96 398.831 2589.96 391.09C2589.97 326.533 2589.96 261.982 2589.96 197.431C2589.96 185.374 2589.18 184.361 2577.6 181.834C2575.75 181.431 2573.84 181.055 2571.97 181.116C2560.55 181.492 2561.7 178.833 2562.18 167.991C2562.22 166.961 2564.1 165.578 2565.38 165.154C2566.92 164.646 2568.74 164.972 2570.44 164.972C2625.44 164.972 2680.44 164.968 2735.44 164.972C2740.97 164.976 2743.74 167.742 2743.76 173.27C2743.77 187.074 2743.63 200.88 2743.83 214.679C2743.89 218.963 2742.69 220.722 2738.12 220.628C2718.56 220.235 2723.67 223.063 2720 204.808C2719.34 201.511 2719.13 198.129 2718.49 194.825C2716.22 183.022 2713.12 182.096 2702.84 182.231C2678.64 182.546 2654.43 182.475 2630.22 182.216C2625.06 182.161 2623.8 183.859 2623.83 188.764C2624.03 216.58 2624.02 244.402 2623.84 272.218C2623.81 276.815 2624.93 278.565 2629.86 278.489C2647.26 278.216 2664.68 278.362 2682.09 278.39C2687.87 278.402 2691.13 275.526 2691.96 269.907C2692.88 263.67 2693.83 257.427 2694.48 251.157C2694.89 247.097 2696.45 245.114 2700.85 245.201C2715.73 245.497 2713.03 243.807 2713.14 257.176C2713.31 279.261 2713.03 301.346 2713.29 323.432C2713.35 328.743 2711.71 330.845 2706.44 330.155C2704.56 329.909 2702.61 329.974 2700.72 330.137C2696.23 330.52 2694.89 328.058 2694.47 324.08C2693.82 317.81 2692.93 311.56 2691.94 305.328C2690.88 298.579 2687.62 295.804 2680.97 295.794C2663.98 295.767 2646.99 295.937 2630.01 295.691C2625.26 295.62 2623.81 297.085 2623.84 301.846C2624.03 333.7 2624.01 365.553 2623.86 397.401C2623.84 401.804 2625.14 403.302 2629.64 403.274C2660.22 403.116 2690.8 403.116 2721.38 403.252C2727.51 403.286 2730.32 399.896 2731.38 394.71C2733.32 385.24 2735.11 375.73 2736.45 366.163C2737.17 361.026 2738.55 358.302 2744.59 358.454C2757.73 358.787 2757.74 358.465 2757.74 371.621C2757.74 385.851 2757.6 400.081 2757.81 414.306C2757.88 418.762 2756.91 420.706 2751.88 420.69C2690.51 420.537 2629.14 420.553 2567.78 420.662C2563.44 420.674 2561.48 419.454 2561.89 414.916C2562.17 411.805 2561.94 408.651 2561.94 405.055" fill="white"/>
<path d="M2249.51 405.05C2256.36 404.385 2262.21 403.65 2268.07 403.301C2274.32 402.931 2276.5 400.115 2274.26 393.691C2270.25 382.179 2265.86 370.788 2261.59 359.368C2258.05 349.91 2254.11 340.589 2250.99 331.007C2249.44 326.273 2247.02 324.899 2242.27 324.938C2216.38 325.129 2190.47 325.145 2164.58 324.911C2160.21 324.873 2157.95 326.382 2156.52 330.222C2148.76 351.108 2140.87 371.959 2133.12 392.855C2130.77 399.213 2133.5 402.928 2140.22 403.277C2145.48 403.554 2150.76 403.876 2155.95 404.711C2157.4 404.939 2158.75 406.915 2159.74 408.366C2160.24 409.096 2159.86 410.431 2159.86 411.494C2159.92 417.548 2156.99 420.58 2151.08 420.59C2131.13 420.596 2111.16 420.461 2091.21 420.679C2086.49 420.734 2084.95 419.3 2085.03 414.54C2085.19 405.14 2084.87 404.678 2094.54 403.164C2103.58 401.748 2108.8 398.103 2112.08 388.628C2123.36 356.046 2135.93 323.915 2148.02 291.609C2163.78 249.459 2179.52 207.298 2195.47 165.224C2196.13 163.476 2198.81 161.492 2200.66 161.378C2207.21 160.965 2215.04 159.155 2220.01 162.016C2224.4 164.539 2225.93 172.459 2228.14 178.214C2243.27 217.454 2258.24 256.765 2273.29 296.039C2286.15 329.62 2299.03 363.194 2312.08 396.705C2312.74 398.398 2314.93 400.022 2316.75 400.627C2320.52 401.874 2324.5 402.499 2328.42 403.219C2334.67 404.368 2338.86 413.83 2335.15 419.088C2334.42 420.125 2332.2 420.51 2330.66 420.516C2305.4 420.607 2280.14 420.504 2254.88 420.651C2250.67 420.679 2249.15 419.191 2249.47 415.105C2249.71 411.972 2249.51 408.807 2249.51 405.048M2204.11 206.78L2201.43 206.645C2189.7 239.669 2177.96 272.694 2166.06 306.192H2241.02C2228.48 272.393 2216.29 239.587 2204.11 206.78Z" fill="white"/>
<path d="M3349.9 351.794C3350.66 351.463 3350.85 351.32 3351.04 351.305C3363.99 350.07 3370.46 355.826 3370.46 368.574C3370.46 380.887 3370.26 393.209 3370.57 405.516C3370.69 410.408 3368.94 412.784 3364.31 414.081C3345.21 419.425 3325.95 423.266 3306.07 424.726C3287.28 426.11 3269.04 424.496 3251.15 419.236C3228.5 412.572 3209.77 399.781 3194.63 381.547C3179.78 363.667 3169.32 343.624 3165.66 320.667C3158.82 277.776 3163.69 237.454 3193.4 202.951C3213.14 180.032 3238.16 167.371 3267.67 162.282C3300.98 156.534 3333.06 162.227 3364.92 171.355C3368.96 172.509 3370.68 174.29 3370.58 178.817C3370.27 194.524 3370.31 210.247 3370.56 225.952C3370.63 230.692 3369.13 232.227 3364.38 232.108C3345.63 231.651 3350.42 234.631 3346.65 216.469C3345.09 208.94 3344.23 200.965 3340.99 194.171C3337.33 186.511 3328.19 185.602 3320.87 183.919C3295.17 178.001 3269.88 179.058 3246.82 193.276C3226.94 205.535 3214.18 223.729 3208 246.148C3199.25 277.833 3199.51 309.643 3209.9 340.869C3220.01 371.273 3240.03 392.33 3271.57 400.937C3291.73 406.439 3312.17 406.411 3332.12 400.251C3336.03 399.041 3340.05 393.615 3341.31 389.337C3344.91 377.076 3347.12 364.403 3349.9 351.797" fill="white"/>
<path d="M2421.33 377.991C2425.97 365.515 2430.12 354.621 2434.07 343.649C2451.86 294.166 2469.57 244.656 2487.37 195.18C2490.56 186.328 2489.34 183.848 2479.97 182.165C2476.47 181.527 2472.87 181.364 2469.32 181.027C2462.71 180.394 2462.18 179.028 2462.18 169.968C2462.17 163.996 2465.93 164.968 2469.41 164.96C2490.22 164.94 2511.03 164.94 2531.83 164.966C2534.92 164.97 2538.98 164.235 2538.16 169.369C2537.48 173.639 2541.67 180.357 2532.9 181.14C2531.67 181.251 2530.45 182.181 2529.27 182.094C2517.01 181.188 2512.93 188.686 2509.25 198.966C2490.67 250.851 2471.36 302.469 2452.3 354.174C2444.52 375.295 2436.81 396.443 2428.76 417.462C2428.02 419.39 2425.13 421.591 2423.09 421.748C2400.6 423.436 2400.97 423.191 2393.13 402.12C2376.28 356.777 2358.96 311.605 2341.9 266.333C2332.48 241.338 2322.93 216.388 2314.04 191.196C2311.62 184.338 2306.65 183.531 2301.14 182.458C2298.46 181.936 2295.76 181.277 2293.05 181.188C2287.9 181.009 2286.19 178.596 2286.35 173.523C2286.61 164.976 2286.35 164.953 2295.11 164.953C2319.31 164.944 2343.52 165.036 2367.72 164.879C2372.61 164.844 2375.7 165.222 2375.36 171.535C2374.89 180.226 2374.84 180.726 2367.36 181.102C2363.38 181.305 2359.37 181.723 2355.45 182.453C2350.94 183.304 2349.15 187.08 2350.76 191.41C2369.16 240.892 2387.53 290.381 2405.93 339.869C2409.74 350.121 2413.55 360.374 2417.47 370.583C2418.26 372.653 2419.51 374.549 2421.33 377.992" fill="white"/>
<path d="M3088.8 164.96C3102.6 164.96 3116.4 164.966 3130.2 164.96C3133.42 164.954 3136.95 164.49 3136.47 169.547C3136.04 173.966 3138.66 179.926 3131.13 180.852C3125.69 181.525 3120.2 181.777 3114.75 182.339C3109.1 182.922 3105.91 186.011 3105.91 191.834C3105.89 259.143 3105.9 326.455 3105.88 393.769C3105.88 399.919 3109.75 402.42 3114.99 403.134C3120.63 403.896 3126.34 404.267 3132.03 404.451C3135.27 404.56 3136.74 405.722 3136.48 408.989C3136.4 410.048 3136.49 411.115 3136.49 412.178C3136.51 417.778 3133.78 420.583 3128.31 420.595C3101.13 420.605 3073.95 420.468 3046.77 420.708C3041.47 420.75 3039.46 419.173 3040 413.872C3040.45 409.344 3038.36 404.544 3046.63 404.092C3053.38 403.723 3061.32 405.907 3067.03 400.046C3068.73 398.307 3070.52 395.675 3070.52 393.442C3070.7 326.348 3070.64 259.246 3070.71 192.145C3070.72 185.995 3067.13 183.319 3061.91 182.447C3056.94 181.614 3051.85 181.108 3046.81 181.124C3039.12 181.151 3040.35 175.936 3039.96 171.072C3039.53 165.614 3042.17 164.82 3046.75 164.884C3060.76 165.086 3074.78 164.96 3088.8 164.96Z" fill="white"/>
<path d="M811.852 421.582V405.668L836.291 403.772L842.932 398.292V184.556L836.291 179.055L811.852 176.785V161.252H906.591V176.785L884.418 179.055L877.794 184.556V403.772H965.516L971.012 397.53L977.648 350.918H997.724V421.582H811.852Z" fill="white"/>
<path d="M1480.4 185.635L1508.86 183.964L1499.94 197.455C1523.15 188.493 1550.12 173.002 1575.87 146.233C1599.05 122.145 1611.48 93.404 1618.1 67.7383H1599.07C1591.63 93.9681 1579.4 116.072 1562.63 133.496C1532.66 164.658 1501.07 179.17 1476.52 185.861C1478.91 185.722 1480.3 185.642 1480.4 185.636V185.635Z" fill="white"/>
<path d="M1526.29 431.759C1505.68 411.729 1487.61 382.651 1478.64 367.047L1476.52 376.063C1485.1 390.629 1499.64 413.359 1516.41 431.297C1518.12 433.107 1519.85 434.869 1521.59 436.591C1525.61 440.489 1529.77 444.2 1534.02 447.708C1534.19 447.851 1534.36 447.999 1534.54 448.134C1536.51 449.749 1538.49 451.318 1540.5 452.849C1540.86 453.123 1541.21 453.386 1541.56 453.659C1543.43 455.065 1545.3 456.432 1547.21 457.774C1547.92 458.274 1548.63 458.757 1549.34 459.243C1550.9 460.316 1552.46 461.373 1554.02 462.393C1601.8 493.388 1723.3 509.62 1724.28 508.684C1722.19 508.493 1719.95 508.264 1717.57 508L1717.9 508.032C1718.71 507.253 1752.54 508.175 1753.35 507.381C1674.22 502.558 1579.32 483.344 1526.29 431.761" fill="white"/>
<path d="M1256.38 296.971L1254.63 297.272L1256.4 297.009L1256.38 296.971Z" fill="black"/>
<path d="M1235.71 269.303L1212.57 221.701L1202.23 217.455C1206.5 224.331 1212.81 234.17 1218.62 242.141C1221.72 246.407 1228.17 256.807 1235.71 269.303Z" fill="white"/>
<path d="M1211.89 243.918L1206.94 249.767L1214.73 247.934C1214.22 247.185 1213.76 246.524 1213.37 245.98C1212.87 245.304 1212.38 244.613 1211.89 243.918Z" fill="white"/>
<path d="M1360.68 238.442C1360.67 238.456 1360.65 238.473 1360.64 238.488C1360.49 238.651 1360.34 238.814 1360.18 238.98C1360.16 239.007 1360.13 239.036 1360.11 239.062C1359.94 239.238 1359.77 239.411 1359.59 239.583C1359.56 239.614 1359.52 239.646 1359.49 239.676C1359.34 239.817 1359.19 239.96 1359.03 240.098C1358.98 240.138 1358.94 240.182 1358.89 240.223C1358.7 240.384 1358.51 240.541 1358.32 240.695C1358.28 240.729 1358.23 240.766 1358.19 240.798C1358.03 240.923 1357.87 241.043 1357.7 241.162C1357.64 241.206 1357.58 241.246 1357.52 241.29C1357.32 241.431 1357.11 241.568 1356.89 241.697C1356.85 241.723 1356.8 241.748 1356.76 241.776C1356.58 241.88 1356.39 241.982 1356.21 242.077C1356.14 242.11 1356.08 242.146 1356.01 242.18C1355.78 242.29 1355.55 242.397 1355.32 242.492C1355.28 242.507 1355.24 242.518 1355.2 242.533C1355 242.616 1354.79 242.686 1354.57 242.751C1354.5 242.772 1354.44 242.795 1354.36 242.815C1354.12 242.885 1353.87 242.948 1353.61 242.996C1353.59 243.001 1353.56 243.003 1353.54 243.007C1353.3 243.048 1353.06 243.079 1352.82 243.1C1352.75 243.107 1352.67 243.113 1352.6 243.117C1352.34 243.132 1352.07 243.137 1351.8 243.128H1351.79C1351.41 243.109 1351.06 243.065 1350.72 243.007C1350.63 242.989 1350.54 242.972 1350.45 242.953C1350.19 242.9 1349.93 242.832 1349.69 242.755C1349.63 242.736 1349.57 242.721 1349.51 242.702C1349.23 242.599 1348.95 242.482 1348.7 242.352C1348.65 242.326 1348.61 242.299 1348.56 242.271C1348.35 242.159 1348.15 242.036 1347.97 241.904C1347.91 241.866 1347.86 241.833 1347.81 241.796C1347.39 241.471 1347.02 241.107 1346.71 240.721C1346.67 240.675 1346.63 240.626 1346.59 240.578C1346.47 240.416 1346.36 240.255 1346.25 240.089C1346.23 240.05 1346.2 240.012 1346.18 239.973C1346.06 239.778 1345.95 239.583 1345.85 239.387C1345.82 239.323 1345.79 239.263 1345.76 239.199C1345.7 239.063 1345.64 238.932 1345.59 238.796C1345.55 238.718 1345.52 238.636 1345.5 238.561C1345.45 238.442 1345.41 238.326 1345.37 238.21C1345.32 238.043 1345.27 237.882 1345.23 237.723C1345.21 237.672 1345.2 237.62 1345.19 237.572C1345.15 237.447 1345.13 237.327 1345.1 237.21V237.201L1342.14 237.348C1342.31 239.406 1342.92 242.161 1344.81 243.999C1345.83 244.998 1347.19 245.64 1348.87 245.947C1350.33 246.215 1352.03 246.228 1353.98 245.962C1360.75 245.059 1364.09 240.028 1365.67 236.275C1365.68 236.248 1365.7 236.216 1365.71 236.188L1362.33 236.352C1361.91 236.951 1361.36 237.683 1360.68 238.443V238.442Z" fill="white"/>
<path d="M1265.16 295.473L1256.4 297.01L1277.29 340.002L1271.56 343.053C1271.32 342.637 1259 321.343 1245.59 298.613L1234.44 300.265L1226.2 326.043C1226.7 327.088 1227.53 328.814 1228.64 331.008L1228.58 330.767L1240.49 304.165L1241.62 306.971L1232.07 337.579C1232.55 338.48 1233.05 339.403 1233.58 340.357L1246.81 316.105L1247.94 318.892L1237.27 346.826C1238.05 348.139 1238.86 349.468 1239.68 350.798L1254.08 327.68L1255.22 330.486L1243.7 357.018C1244.89 358.772 1246.11 360.485 1247.34 362.133L1259.68 339.477L1260.8 342.284L1251.53 367.336C1253.38 369.462 1255.25 371.357 1257.1 372.925L1267.23 346.76L1268.36 349.539L1261.5 376.023C1263.59 377.237 1265.72 378.238 1267.87 379.019L1273.66 356.64L1275.44 361.457L1272.39 380.339C1277.83 381.533 1283.07 381.249 1287.23 379.36L1280.69 361.771L1281.91 359.903L1292.69 375.148C1294.58 372.817 1295.83 369.828 1296.43 366.279L1283.39 353.584L1282.5 349.634L1297 358.219C1297 355.78 1296.9 353.219 1296.71 350.592L1278.66 335.411L1277.78 331.465L1295.97 343.131C1295.71 340.978 1295.4 338.825 1295.07 336.696L1272.65 320.234L1271.78 316.273L1293.82 329.33C1293.4 327.078 1292.97 324.91 1292.55 322.863L1265.42 302.623L1264.54 298.674L1290.61 314.121C1289.93 311.251 1289.37 309.044 1289.04 307.797L1271.38 295.872C1268.65 295.691 1266.51 295.558 1265.16 295.477V295.473Z" fill="white"/>
<path d="M1229.85 292.764C1230.7 289.244 1232.06 284.064 1233.83 278.531C1233.82 278.591 1233.79 278.653 1233.78 278.713C1229.02 270.766 1224.54 263.382 1220.87 257.492L1207.6 283.011L1208.58 285.311L1220.9 267.372L1222.02 270.167L1211.63 292.443L1213.23 296.197L1226.57 278.771L1227.71 281.577L1216.33 303.473L1217.44 306.057L1230.1 291.739C1230 292.103 1229.93 292.427 1229.85 292.763V292.764Z" fill="white"/>
<path d="M1239.9 263.052C1239.83 263.195 1239.77 263.35 1239.7 263.494C1242.32 258.123 1245.31 253.742 1248.59 252.031C1249.05 251.784 1249.63 251.532 1250.25 251.279C1249.63 251.532 1249.05 251.784 1248.59 252.028C1248.45 252.104 1248.31 252.198 1248.16 252.283L1234.29 251.499L1239.9 263.051V263.052Z" fill="white"/>
<path d="M1615.76 302.828L1558.42 278.308L1586.72 241.127L1533.82 234.151L1539.56 214.646L1480.87 212.809L1492.01 195.965L1475.76 196.919C1474.66 196.981 1349.73 204.25 1335.18 205.299C1319.78 206.393 1305.14 226.853 1298.74 237.11C1288.42 238.764 1274.09 241.242 1262.76 243.876L1260.89 242.822L1246.96 242.024L1252.34 237.626L1248.09 226.868L1241.61 227.304C1242.13 226.257 1242.49 225.234 1242.7 224.24L1243.45 220.656L1233.51 218.534L1229.94 217.631L1229.18 221.242C1228.95 221.854 1227.72 223.364 1225.64 225.277L1220.91 215.538L1218.22 213.02L1194.46 203.252L1188.7 209.942L1187.15 212.258L1188.52 214.535C1190.48 217.788 1195.1 225.388 1200.43 233.562C1195.63 234.142 1189.52 234.575 1183.79 234.082L1180.13 233.768L1178.95 247.559L1182.6 247.878C1186.88 248.247 1191.2 248.201 1195.13 247.958L1191.08 252.744L1197.08 262.55L1208.13 259.947L1197.49 280.414L1197.33 284.834L1210.88 316.645L1218.15 317.835L1215.91 324.815L1216.14 328.536L1216.43 329.153C1217.22 330.897 1236.09 371.978 1254.74 383.808C1261.7 388.229 1269.26 390.788 1276.6 391.209C1277.29 391.248 1277.98 391.267 1278.65 391.267C1283.45 391.267 1288 390.294 1291.92 388.421C1297.85 385.592 1305.25 379.414 1306.77 366.047C1309.35 343.322 1298.99 305.54 1298.55 303.942L1298.37 303.318L1297.16 301.613C1319.11 303.645 1340.03 306.514 1348.68 309.975C1348.99 310.1 1349.3 310.226 1349.58 310.353C1356.51 313.496 1410.54 343.525 1442.23 361.254L1464.76 415.483L1477.77 360.063L1520.36 388.769L1521.82 342.366L1565.85 344.712L1541.85 313.999L1615.76 302.828ZM1557.99 340.611L1518.27 338.496L1516.9 382.002L1475.41 354.04L1463.78 403.554L1445.14 358.666C1434.93 352.956 1359.74 310.924 1351.09 307.003C1350.77 306.854 1350.42 306.71 1350.05 306.564C1338.1 301.783 1306.08 298.546 1284.53 296.832L1293.69 303.08L1295 304.919C1295.44 306.495 1305.59 343.822 1303.12 365.632C1301.79 377.316 1295.44 382.668 1290.33 385.103C1286.32 387.018 1281.69 387.814 1276.81 387.537C1270.23 387.162 1263.22 384.84 1256.71 380.707C1239.21 369.602 1220.55 329.337 1219.77 327.627L1219.62 325.275L1225.57 306.689L1218.89 314.233L1213.47 313.345L1201.03 284.145L1201.13 281.372L1215.08 254.534L1198.83 258.364L1195.6 253.09L1203.82 243.376C1198.07 244.193 1190.33 244.858 1182.92 244.215L1183.48 237.744C1192.05 238.479 1201.28 237.284 1206.68 236.359C1198.71 224.457 1191.58 212.484 1191.48 212.338L1195.51 207.661L1216.2 216.162L1217.9 217.753L1224.38 231.108C1228.42 228.025 1232.31 224.178 1232.74 222.128L1239.1 223.484C1238.54 226.16 1236.33 229.036 1233.85 231.509L1245.66 230.712L1247.93 236.477L1237.32 245.15L1259.83 246.443L1262.21 247.78C1262.03 247.821 1261.88 247.863 1261.71 247.904C1274.99 244.711 1293.41 241.672 1300.98 240.471C1305.66 232.758 1320.77 210.004 1335.44 208.965C1349.98 207.918 1474.69 200.658 1475.96 200.589L1484.89 200.064L1474.17 216.277L1534.69 218.172L1529.08 237.235L1579.96 243.942L1552.64 279.836L1602.43 301.129L1535.07 311.309L1557.98 340.614L1557.99 340.611Z" fill="white"/>
<path d="M1569.91 296.957L1538.54 283.553L1563.46 250.802L1517.54 244.751L1522.82 226.771L1457.83 224.734L1467.53 210.064C1443.15 211.473 1348.42 217.02 1336.06 217.907C1327.15 218.528 1313.89 235.973 1307.63 246.824L1306.56 248.676L1304.42 249.009C1287.58 251.606 1258.63 256.873 1252.75 259.955C1249.46 261.691 1244.06 274.371 1239.72 290.41L1322.4 277.819L1317.19 286.506L1316.33 286.654L1300.3 289.471C1327.66 292.167 1345.56 295.146 1353.65 298.359C1354.05 298.519 1354.45 298.679 1354.8 298.839C1364.54 303.263 1450.02 351.117 1450.88 351.598L1452.23 352.347L1461.4 374.439L1469.64 339.34L1508.44 365.494L1509.59 329.066L1538.79 330.61L1518.57 304.748L1569.91 296.957ZM1310.7 249.664C1319.56 255.247 1319.14 258.138 1318.96 259.369C1318.51 262.545 1315.82 264.045 1313.31 263.955C1313.11 263.955 1312.92 263.946 1312.72 263.916L1309.7 263.526L1309.91 257.299C1309.04 256.641 1308.06 255.943 1307.1 255.352L1310.7 249.664ZM1268.53 282.733C1253.05 284.74 1244.49 286.423 1244.49 286.423C1244.49 286.423 1251.39 262.84 1257.8 261.163C1264.21 259.503 1301.8 252.708 1301.8 252.708C1301.8 252.708 1303.18 262.318 1307.44 268.455C1310.46 272.798 1319.95 276.117 1319.95 276.117C1319.95 276.117 1287.11 280.324 1268.53 282.733ZM1384.06 249.102C1383.77 250.011 1383.27 250.9 1382.52 251.72C1382.16 252.105 1381.76 252.434 1381.34 252.716C1381.01 252.942 1380.65 253.139 1380.29 253.306C1380.14 253.376 1379.98 253.441 1379.83 253.502C1379.52 253.619 1379.21 253.722 1378.9 253.808C1378.51 253.912 1378.11 253.991 1377.71 254.053C1376.71 254.203 1375.68 254.228 1374.68 254.171C1374.45 254.159 1374.22 254.143 1373.99 254.122C1373.67 254.091 1373.35 254.056 1373.04 254.015C1370.13 253.624 1367.82 252.745 1367.82 252.745C1367.82 252.745 1374.6 250.718 1377.52 247.4C1378.38 246.414 1379.06 245.369 1379.58 244.357C1381.14 241.322 1381.35 238.584 1381.35 238.584C1381.35 238.584 1384.46 242.65 1384.41 246.894C1384.4 247.632 1384.29 248.374 1384.06 249.101V249.102ZM1403.46 231.954C1403.38 231.956 1403.3 231.959 1403.22 231.961C1402.8 231.976 1402.37 231.993 1401.92 232.011C1401.84 232.015 1401.76 232.018 1401.67 232.02C1401.21 232.039 1400.72 232.057 1400.23 232.079C1399.71 232.101 1399.18 232.126 1398.64 232.152C1398.57 232.152 1398.51 232.156 1398.45 232.158C1397.91 232.184 1397.36 232.21 1396.79 232.238C1396.75 232.239 1396.71 232.242 1396.67 232.244C1395.49 232.302 1394.25 232.366 1392.97 232.437H1392.95C1387.06 232.755 1380.29 233.177 1373.51 233.632C1373.12 235.729 1372.26 238.417 1370.8 241.114C1370.78 241.14 1370.77 241.168 1370.76 241.197C1370.64 241.401 1370.53 241.607 1370.41 241.812L1370.31 241.975C1370.21 242.157 1370.1 242.339 1369.98 242.519C1369.93 242.596 1369.89 242.673 1369.84 242.749C1369.74 242.91 1369.63 243.071 1369.53 243.228C1369.46 243.326 1369.4 243.419 1369.33 243.515C1369.23 243.657 1369.13 243.8 1369.03 243.942C1368.95 244.051 1368.87 244.159 1368.79 244.268C1368.7 244.397 1368.6 244.522 1368.5 244.65C1368.41 244.77 1368.31 244.89 1368.22 245.009C1368.13 245.124 1368.03 245.236 1367.93 245.351C1367.83 245.479 1367.72 245.606 1367.61 245.732C1367.52 245.835 1367.43 245.939 1367.33 246.042C1367.22 246.174 1367.09 246.304 1366.97 246.436C1366.88 246.529 1366.79 246.625 1366.7 246.719C1366.57 246.852 1366.43 246.985 1366.29 247.116C1366.2 247.202 1366.11 247.291 1366.02 247.375C1365.88 247.51 1365.73 247.641 1365.58 247.772C1365.49 247.851 1365.4 247.932 1365.31 248.012C1365.15 248.141 1365 248.269 1364.84 248.394C1364.74 248.471 1364.65 248.548 1364.55 248.621C1364.39 248.746 1364.22 248.87 1364.06 248.992C1363.96 249.062 1363.86 249.134 1363.76 249.201C1363.59 249.321 1363.42 249.437 1363.24 249.553C1363.14 249.619 1363.04 249.686 1362.93 249.749C1362.76 249.864 1362.57 249.97 1362.39 250.077C1362.28 250.141 1362.17 250.205 1362.07 250.264C1361.88 250.367 1361.69 250.466 1361.5 250.565C1361.38 250.623 1361.27 250.681 1361.16 250.738C1360.97 250.834 1360.77 250.921 1360.57 251.012C1360.45 251.065 1360.33 251.122 1360.21 251.173C1360.01 251.259 1359.81 251.337 1359.61 251.417C1359.48 251.467 1359.35 251.519 1359.22 251.565C1359.02 251.643 1358.8 251.709 1358.59 251.779C1358.46 251.823 1358.33 251.868 1358.2 251.909C1357.98 251.974 1357.76 252.032 1357.54 252.092C1357.4 252.13 1357.27 252.169 1357.13 252.204C1356.89 252.26 1356.65 252.308 1356.41 252.359C1356.28 252.387 1356.15 252.419 1356.02 252.444C1355.69 252.506 1355.36 252.559 1355.03 252.605C1354.97 252.614 1354.92 252.624 1354.87 252.631C1353.34 252.839 1351.9 252.912 1350.53 252.876C1348.91 252.823 1347.4 252.601 1346.01 252.205C1346 252.201 1345.99 252.197 1345.98 252.192C1343.68 251.531 1341.7 250.398 1340.07 248.781C1339.86 248.573 1339.66 248.359 1339.47 248.143C1339.41 248.079 1339.35 248.013 1339.3 247.947C1339.16 247.79 1339.03 247.627 1338.9 247.465C1338.85 247.394 1338.79 247.324 1338.74 247.253C1338.59 247.057 1338.45 246.856 1338.31 246.654C1338.29 246.626 1338.27 246.597 1338.25 246.568C1338.1 246.34 1337.96 246.107 1337.82 245.875C1337.78 245.799 1337.74 245.723 1337.69 245.646C1337.6 245.479 1337.51 245.313 1337.42 245.146C1337.38 245.066 1337.34 244.983 1337.3 244.9C1337.21 244.71 1337.12 244.517 1337.03 244.323C1337.01 244.274 1336.98 244.226 1336.96 244.176C1336.86 243.936 1336.77 243.695 1336.67 243.455C1336.65 243.388 1336.62 243.323 1336.6 243.256C1336.53 243.068 1336.47 242.884 1336.41 242.696C1336.39 242.629 1336.36 242.564 1336.34 242.496C1336.27 242.273 1336.21 242.054 1336.14 241.834C1336.14 241.814 1336.13 241.795 1336.13 241.774C1336.06 241.516 1335.99 241.257 1335.94 241.001C1335.93 240.995 1335.93 240.989 1335.93 240.983C1335.87 240.73 1335.82 240.482 1335.77 240.235C1335.77 240.226 1335.77 240.217 1335.76 240.207C1335.52 238.936 1335.41 237.751 1335.37 236.754C1331.69 237.489 1331.72 239.83 1331.72 239.937L1324.99 240.165C1324.89 237.186 1326.8 231.237 1334.78 230.028C1342.04 228.931 1401.91 227.188 1404.45 227.114L1404.6 229.953L1404.71 231.915C1404.31 231.927 1403.88 231.941 1403.45 231.956L1403.46 231.954ZM1460.67 360.713L1455.92 351.597L1458.35 339.331L1463.08 350.135L1460.67 360.713ZM1548.53 295.246L1532.21 296.979L1512.16 286.81L1533.42 288.039L1548.53 295.246ZM1547.86 256.718L1538.18 267.635L1516.37 255.725L1547.86 256.718ZM1513.86 232.1L1512.36 238.406L1483.17 231.138L1513.86 232.1ZM1501.75 350.419L1491.09 344.28L1485.08 327.218L1502.05 340.894L1501.75 350.419ZM1519.65 315.645L1523.76 321.935L1516.35 321.713L1501.29 310.586L1519.65 315.645Z" fill="white"/>
<path d="M1436.16 366.652C1431.57 364.087 1426.92 361.49 1422.28 358.9L1422.18 365.022C1421.87 383.782 1416.94 421.913 1387.31 466.481C1379.95 477.541 1366.94 487.553 1348.64 496.242L1310.61 514.295L1354.54 513.958L1356.52 512.839C1374.95 504.094 1392.1 492.456 1402.61 476.657C1430.25 435.085 1438.05 398.145 1439.98 375.833L1436.16 366.652Z" fill="white"/>
<path d="M1235.94 237.881L1227.94 238.422L1230.03 242.723L1235.94 237.881Z" fill="white"/>
<path d="M1551.9 208.337L1548.55 219.741L1590.17 223.89L1587.62 231.088L1602.02 232.988L1605.68 221.624C1618.37 214.982 1654.98 194.319 1675.02 167.265C1701.81 131.077 1713.47 83.6406 1715.86 72.9102H1700.32C1695.77 92.52 1685.91 121.863 1664.55 154.301C1645.09 183.837 1590.17 210.985 1590.17 210.985L1551.9 208.337Z" fill="#CD2424"/>
<path d="M1567.89 188.293C1569.53 187.137 1608.35 159.711 1623.27 134.052C1635.27 113.41 1643.96 91.2036 1649.11 68.0489L1649.5 66.2969H1639.63L1639.37 67.4179C1634.29 89.8354 1626.03 110.507 1614.83 128.855C1598.49 155.619 1569.01 176.784 1565.11 179.511L1551.11 178.046L1550.66 178.373C1548.01 180.308 1545.38 182.156 1542.77 183.907L1539.35 186.187L1567.46 188.59L1567.89 188.29V188.293Z" fill="white"/>
<path d="M1587.05 279.599L1599.44 241.021L1574.25 274.128L1587.05 279.599Z" fill="white"/>
<path d="M1625.38 229.901L1607.45 288.325L1615.23 291.65L1632.13 234.251C1632.13 234.251 1670.93 218.381 1698.85 183.967C1736.05 138.118 1741.4 92.866 1741.4 92.866L1735.8 85.0566C1735.8 85.0566 1733.24 126.737 1694.64 176.439C1668.92 209.557 1625.38 229.901 1625.38 229.901Z" fill="white"/>
<path d="M1503 466.191C1503 466.191 1499.85 489.757 1491.53 512.841H1491.46V512.904L1499.66 512.841L1509.62 469.305L1517.67 454.268L1512.5 448.996L1503 466.191Z" fill="white"/>
<path d="M1526.29 431.757C1509.36 415.299 1494.21 392.825 1484.35 376.643L1484.23 376.566L1482.17 385.348C1490.84 399.26 1502.87 416.804 1516.41 431.291C1518.12 433.103 1519.84 434.865 1521.59 436.585C1525.61 440.484 1529.77 444.194 1534.01 447.703C1534.19 447.847 1534.36 447.993 1534.53 448.13C1536.51 449.745 1538.49 451.314 1540.5 452.845C1540.85 453.119 1541.21 453.382 1541.56 453.655C1543.43 455.06 1545.3 456.429 1547.21 457.771C1547.92 458.27 1548.63 458.753 1549.34 459.238C1550.89 460.311 1552.46 461.37 1554.02 462.392C1601.79 493.384 1680.99 505.952 1724.28 508.68C1742.39 509.788 1752.54 508.172 1753.35 507.375C1674.22 502.553 1579.32 483.337 1526.29 431.755V431.757Z" fill="white"/>
<path d="M1498.41 435.923L1488.74 423.794L1475.15 446.106L1469.61 438.869L1467.43 448.173L1456.38 421.571L1444.31 405.797C1443.03 411.009 1441.44 416.53 1439.51 422.316L1465.48 459.25C1465.48 459.25 1461.32 489.197 1449 512.199L1448.45 513.232L1467.25 513.088L1467.44 512.839H1467.39C1480.55 486.782 1483.19 461.812 1483.19 461.812L1498.41 435.923Z" fill="#CD2424"/>
<path d="M1426.77 449.671L1436.5 463.683C1434.55 468.318 1423.28 494.299 1409.68 508.34L1408.63 509.406C1408 510.043 1407.36 510.693 1406.7 511.401L1403.23 515.023L1417.45 514.914L1418.86 513.499C1434.76 495.307 1445.71 463.108 1446.17 461.746L1446.41 461.032L1431.1 440.439L1426.77 449.671Z" fill="white"/>
<path d="M1624.45 303.939L1562.19 277.313L1591.12 239.289L1536.9 232.138L1542.73 212.345L1485.24 210.546L1496.65 193.289L1475.62 194.523C1474.43 194.59 1349.74 201.843 1335 202.907C1328.15 203.393 1314.19 208.214 1297.28 234.914C1287.53 236.49 1274.07 238.825 1263.12 241.329L1262.06 240.73L1253.22 239.997L1255.21 238.373L1249.67 224.355L1245.06 224.666L1246.29 218.809L1234.1 216.207L1228.1 214.689L1226.91 220.403C1226.81 220.557 1226.62 220.817 1226.31 221.178L1223.06 214.49L1219.88 211.281L1193.76 200.379L1186.71 208.605L1184.31 212.188L1186.46 215.772C1188.83 219.696 1192.34 225.426 1196.29 231.577C1191.74 231.962 1187.62 232.001 1183.99 231.693L1177.94 231.173L1176.34 249.741L1182.4 250.266C1184.72 250.468 1187.23 250.557 1189.8 250.541L1188.13 252.52L1195.94 265.284L1203.59 263.482L1195.36 279.308L1194.91 285.274L1209.2 318.8L1215.01 319.754L1213.49 324.529L1213.75 328.685L1214.24 330.145C1215.04 331.912 1234.14 373.58 1253.45 385.831C1260.75 390.472 1268.71 393.161 1276.47 393.603C1282.44 393.949 1288.13 392.889 1292.95 390.584C1299.43 387.498 1307.5 380.78 1309.15 366.317C1311.57 344.969 1302.94 311.089 1301.15 304.404C1324.38 306.684 1340.88 309.438 1347.8 312.203L1348.59 312.536C1355.35 315.601 1409.15 345.501 1440.34 362.94L1465.39 423.266L1479.31 363.993L1522.62 393.174L1524.14 344.89L1570.98 347.385L1546.27 315.757L1624.45 303.937V303.939ZM1557.98 340.611L1518.26 338.495L1516.89 382.002L1475.4 354.04L1463.78 403.554L1445.13 358.665C1434.93 352.955 1359.73 310.924 1351.09 307.002C1350.76 306.854 1350.41 306.71 1350.05 306.563C1338.1 301.782 1306.08 298.546 1284.52 296.832L1293.69 303.079L1295 304.919C1295.43 306.495 1305.59 343.821 1303.11 365.631C1301.78 377.315 1295.43 382.667 1290.33 385.103C1286.32 387.018 1281.68 387.813 1276.81 387.537C1270.23 387.162 1263.21 384.84 1256.71 380.706C1239.21 369.602 1220.54 329.337 1219.76 327.627L1219.61 325.274L1225.56 306.688L1218.88 314.233L1213.46 313.344L1201.03 284.144L1201.13 281.371L1215.08 254.534L1198.82 258.364L1195.6 253.09L1203.81 243.376C1198.07 244.193 1190.33 244.857 1182.92 244.215L1183.47 237.743C1192.04 238.479 1201.27 237.284 1206.67 236.359C1198.7 224.457 1191.57 212.483 1191.48 212.338L1195.5 207.66L1216.2 216.162L1217.89 217.752L1224.38 231.107C1228.41 228.025 1232.31 224.177 1232.74 222.127L1239.1 223.484C1238.53 226.159 1236.32 229.035 1233.85 231.508L1245.65 230.712L1247.93 236.477L1237.31 245.15L1259.82 246.442L1262.2 247.78C1262.03 247.821 1261.88 247.863 1261.71 247.904C1274.98 244.711 1293.4 241.672 1300.98 240.471C1305.66 232.757 1320.76 210.004 1335.43 208.964C1349.98 207.918 1474.69 200.658 1475.95 200.588L1484.89 200.063L1474.17 216.277L1534.68 218.171L1529.07 237.234L1579.96 243.941L1552.64 279.836L1602.43 301.128L1535.07 311.309L1557.98 340.614V340.611Z" fill="white"/>
</svg>
